<?xml version="1.0" encoding="UTF-8"?><svg xmlns="http://www.w3.org/2000/svg" xmlns:xlink="http://www.w3.org/1999/xlink" fill="#000000" height="480" preserveAspectRatio="xMidYMid meet" version="1" viewBox="64.0 16.0 384.0 480.0" width="384" zoomAndPan="magnify"><defs><clipPath id="a"><path d="M 64 16 L 448 16 L 448 496 L 64 496 Z M 64 16"/></clipPath><clipPath id="b"><path d="M 256 128 C 287.597656 128 308.574219 132.476562 316.933594 136 C 308.574219 139.523438 287.597656 144 256 144 C 224.402344 144 203.425781 139.523438 195.070312 136 C 203.425781 132.476562 224.402344 128 256 128 Z M 192 151.953125 C 195.773438 153.308594 199.746094 154.320312 203.351562 155.121094 C 217.503906 158.269531 236.203125 160 256 160 C 275.796875 160 294.496094 158.269531 308.648438 155.121094 C 312.253906 154.320312 316.226562 153.308594 320 151.953125 L 320 182.371094 C 315.152344 185.9375 292.773438 192 256 192 C 219.226562 192 196.847656 185.9375 192 182.371094 Z M 192 199.953125 C 195.773438 201.308594 199.746094 202.320312 203.351562 203.121094 C 217.503906 206.269531 236.203125 208 256 208 C 275.796875 208 294.496094 206.269531 308.648438 203.121094 C 312.253906 202.320312 316.226562 201.308594 320 199.953125 L 320 230.371094 C 315.152344 233.9375 292.773438 240 256 240 C 219.226562 240 196.847656 233.9375 192 230.371094 Z M 256 288 C 219.257812 288 196.871094 281.945312 192 278.378906 L 192 247.953125 C 195.773438 249.308594 199.746094 250.320312 203.351562 251.121094 C 217.503906 254.269531 236.203125 256 256 256 C 275.796875 256 294.496094 254.269531 308.648438 251.121094 C 312.253906 250.320312 316.226562 249.308594 320 247.953125 L 320 278.378906 C 315.128906 281.945312 292.742188 288 256 288 Z M 203.351562 299.121094 C 217.503906 302.269531 236.203125 304 256 304 C 275.796875 304 294.496094 302.269531 308.648438 299.121094 C 320.390625 296.515625 336 291.691406 336 280 L 336 136 C 336 124.308594 320.390625 119.484375 308.648438 116.878906 C 294.496094 113.730469 275.796875 112 256 112 C 236.203125 112 217.503906 113.730469 203.351562 116.878906 C 191.609375 119.484375 176 124.308594 176 136 L 176 280 C 176 291.691406 191.609375 296.515625 203.351562 299.121094 Z M 256 448 C 247.328125 448 240 437.007812 240 424 C 240 410.992188 247.328125 400 256 400 C 264.671875 400 272 410.992188 272 424 C 272 427.886719 271.34375 431.589844 270.191406 434.878906 L 261.65625 426.34375 C 258.53125 423.21875 253.46875 423.21875 250.34375 426.34375 C 247.21875 429.46875 247.21875 434.53125 250.34375 437.65625 L 259.921875 447.238281 C 258.664062 447.734375 257.347656 448 256 448 Z M 282.214844 446.898438 C 285.855469 440.40625 288 432.511719 288 424 C 288 401.945312 273.644531 384 256 384 C 238.355469 384 224 401.945312 224 424 C 224 446.054688 238.355469 464 256 464 C 261.660156 464 266.976562 462.144531 271.597656 458.910156 L 274.34375 461.65625 C 275.90625 463.21875 277.953125 464 280 464 C 282.046875 464 284.09375 463.21875 285.65625 461.65625 C 288.78125 458.53125 288.78125 453.46875 285.65625 450.34375 Z M 352 456 C 352 460.417969 348.417969 464 344 464 L 312 464 C 307.582031 464 304 460.417969 304 456 L 304 392 C 304 387.582031 307.582031 384 312 384 C 316.417969 384 320 387.582031 320 392 L 320 448 L 344 448 C 348.417969 448 352 451.582031 352 456 Z M 176 408 C 176 412.410156 179.589844 416 184 416 C 197.234375 416 208 426.765625 208 440 C 208 453.234375 197.234375 464 184 464 L 168 464 C 163.582031 464 160 460.417969 160 456 C 160 451.582031 163.582031 448 168 448 L 184 448 C 188.410156 448 192 444.410156 192 440 C 192 435.589844 188.410156 432 184 432 C 170.765625 432 160 421.234375 160 408 C 160 394.765625 170.765625 384 184 384 L 200 384 C 204.417969 384 208 387.582031 208 392 C 208 396.417969 204.417969 400 200 400 L 184 400 C 179.589844 400 176 403.589844 176 408 Z M 392 480 L 120 480 C 97.945312 480 80 462.054688 80 440 L 80 368 L 432 368 L 432 440 C 432 462.054688 414.054688 480 392 480 Z M 120 32 L 336 32 L 336 72 C 336 102.878906 361.121094 128 392 128 L 432 128 L 432 352 L 80 352 L 80 72 C 80 49.945312 97.945312 32 120 32 Z M 352 43.3125 L 420.6875 112 L 392 112 C 369.945312 112 352 94.054688 352 72 Z M 349.65625 18.34375 C 348.15625 16.84375 346.121094 16 344 16 L 120 16 C 89.121094 16 64 41.121094 64 72 L 64 440 C 64 470.878906 89.121094 496 120 496 L 392 496 C 422.878906 496 448 470.878906 448 440 L 448 120 C 448 117.878906 447.15625 115.84375 445.65625 114.34375 Z M 349.65625 18.34375"/></clipPath><clipPath id="c"><path d="M 256 128 C 287.597656 128 308.574219 132.476562 316.933594 136 C 308.574219 139.523438 287.597656 144 256 144 C 224.402344 144 203.425781 139.523438 195.070312 136 C 203.425781 132.476562 224.402344 128 256 128 Z M 192 151.953125 C 195.773438 153.308594 199.746094 154.320312 203.351562 155.121094 C 217.503906 158.269531 236.203125 160 256 160 C 275.796875 160 294.496094 158.269531 308.648438 155.121094 C 312.253906 154.320312 316.226562 153.308594 320 151.953125 L 320 182.371094 C 315.152344 185.9375 292.773438 192 256 192 C 219.226562 192 196.847656 185.9375 192 182.371094 Z M 192 199.953125 C 195.773438 201.308594 199.746094 202.320312 203.351562 203.121094 C 217.503906 206.269531 236.203125 208 256 208 C 275.796875 208 294.496094 206.269531 308.648438 203.121094 C 312.253906 202.320312 316.226562 201.308594 320 199.953125 L 320 230.371094 C 315.152344 233.9375 292.773438 240 256 240 C 219.226562 240 196.847656 233.9375 192 230.371094 Z M 256 288 C 219.257812 288 196.871094 281.945312 192 278.378906 L 192 247.953125 C 195.773438 249.308594 199.746094 250.320312 203.351562 251.121094 C 217.503906 254.269531 236.203125 256 256 256 C 275.796875 256 294.496094 254.269531 308.648438 251.121094 C 312.253906 250.320312 316.226562 249.308594 320 247.953125 L 320 278.378906 C 315.128906 281.945312 292.742188 288 256 288 Z M 203.351562 299.121094 C 217.503906 302.269531 236.203125 304 256 304 C 275.796875 304 294.496094 302.269531 308.648438 299.121094 C 320.390625 296.515625 336 291.691406 336 280 L 336 136 C 336 124.308594 320.390625 119.484375 308.648438 116.878906 C 294.496094 113.730469 275.796875 112 256 112 C 236.203125 112 217.503906 113.730469 203.351562 116.878906 C 191.609375 119.484375 176 124.308594 176 136 L 176 280 C 176 291.691406 191.609375 296.515625 203.351562 299.121094 Z M 256 448 C 247.328125 448 240 437.007812 240 424 C 240 410.992188 247.328125 400 256 400 C 264.671875 400 272 410.992188 272 424 C 272 427.886719 271.34375 431.589844 270.191406 434.878906 L 261.65625 426.34375 C 258.53125 423.21875 253.46875 423.21875 250.34375 426.34375 C 247.21875 429.46875 247.21875 434.53125 250.34375 437.65625 L 259.921875 447.238281 C 258.664062 447.734375 257.347656 448 256 448 Z M 282.214844 446.898438 C 285.855469 440.40625 288 432.511719 288 424 C 288 401.945312 273.644531 384 256 384 C 238.355469 384 224 401.945312 224 424 C 224 446.054688 238.355469 464 256 464 C 261.660156 464 266.976562 462.144531 271.597656 458.910156 L 274.34375 461.65625 C 275.90625 463.21875 277.953125 464 280 464 C 282.046875 464 284.09375 463.21875 285.65625 461.65625 C 288.78125 458.53125 288.78125 453.46875 285.65625 450.34375 Z M 352 456 C 352 460.417969 348.417969 464 344 464 L 312 464 C 307.582031 464 304 460.417969 304 456 L 304 392 C 304 387.582031 307.582031 384 312 384 C 316.417969 384 320 387.582031 320 392 L 320 448 L 344 448 C 348.417969 448 352 451.582031 352 456 Z M 176 408 C 176 412.410156 179.589844 416 184 416 C 197.234375 416 208 426.765625 208 440 C 208 453.234375 197.234375 464 184 464 L 168 464 C 163.582031 464 160 460.417969 160 456 C 160 451.582031 163.582031 448 168 448 L 184 448 C 188.410156 448 192 444.410156 192 440 C 192 435.589844 188.410156 432 184 432 C 170.765625 432 160 421.234375 160 408 C 160 394.765625 170.765625 384 184 384 L 200 384 C 204.417969 384 208 387.582031 208 392 C 208 396.417969 204.417969 400 200 400 L 184 400 C 179.589844 400 176 403.589844 176 408 Z M 392 480 L 120 480 C 97.945312 480 80 462.054688 80 440 L 80 368 L 432 368 L 432 440 C 432 462.054688 414.054688 480 392 480 Z M 120 32 L 336 32 L 336 72 C 336 102.878906 361.121094 128 392 128 L 432 128 L 432 352 L 80 352 L 80 72 C 80 49.945312 97.945312 32 120 32 Z M 352 43.3125 L 420.6875 112 L 392 112 C 369.945312 112 352 94.054688 352 72 Z M 349.65625 18.34375 C 348.15625 16.84375 346.121094 16 344 16 L 120 16 C 89.121094 16 64 41.121094 64 72 L 64 440 C 64 470.878906 89.121094 496 120 496 L 392 496 C 422.878906 496 448 470.878906 448 440 L 448 120 C 448 117.878906 447.15625 115.84375 445.65625 114.34375 L 349.65625 18.34375"/></clipPath><linearGradient gradientTransform="matrix(0 -480 480 0 256 496)" gradientUnits="userSpaceOnUse" id="d" x1="0" x2="1" xlink:actuate="onLoad" xlink:show="other" xlink:type="simple" xmlns:xlink="http://www.w3.org/1999/xlink" y1="0" y2="0"><stop offset="0" stop-color="#53c7eb"/><stop offset="0.004" stop-color="#53c7ec"/><stop offset="0.008" stop-color="#53c7ed"/><stop offset="0.012" stop-color="#54c7ed"/><stop offset="0.016" stop-color="#54c6ed"/><stop offset="0.02" stop-color="#54c6ec"/><stop offset="0.023" stop-color="#53c5ec"/><stop offset="0.027" stop-color="#54c4ec"/><stop offset="0.031" stop-color="#54c4ed"/><stop offset="0.035" stop-color="#54c3ed"/><stop offset="0.039" stop-color="#55c2ec"/><stop offset="0.043" stop-color="#55c1ec"/><stop offset="0.047" stop-color="#55c1ec"/><stop offset="0.051" stop-color="#55c0ed"/><stop offset="0.055" stop-color="#55c0ed"/><stop offset="0.059" stop-color="#56bfed"/><stop offset="0.063" stop-color="#56beed"/><stop offset="0.066" stop-color="#57bded"/><stop offset="0.07" stop-color="#57bced"/><stop offset="0.074" stop-color="#57bbec"/><stop offset="0.078" stop-color="#57baec"/><stop offset="0.082" stop-color="#57b9eb"/><stop offset="0.086" stop-color="#57b8ea"/><stop offset="0.09" stop-color="#58b7ea"/><stop offset="0.094" stop-color="#59b6e9"/><stop offset="0.098" stop-color="#5ab5e9"/><stop offset="0.102" stop-color="#5bb4e8"/><stop offset="0.105" stop-color="#5bb3e8"/><stop offset="0.109" stop-color="#5bb3e7"/><stop offset="0.113" stop-color="#5cb2e6"/><stop offset="0.117" stop-color="#5cb1e6"/><stop offset="0.121" stop-color="#5db0e5"/><stop offset="0.125" stop-color="#5dafe5"/><stop offset="0.129" stop-color="#5eaee4"/><stop offset="0.133" stop-color="#5fade4"/><stop offset="0.137" stop-color="#60ade3"/><stop offset="0.141" stop-color="#61ace3"/><stop offset="0.145" stop-color="#61abe2"/><stop offset="0.148" stop-color="#62aae1"/><stop offset="0.152" stop-color="#63a9e1"/><stop offset="0.156" stop-color="#63a8e0"/><stop offset="0.16" stop-color="#64a7e0"/><stop offset="0.164" stop-color="#64a6df"/><stop offset="0.168" stop-color="#65a6df"/><stop offset="0.172" stop-color="#66a5de"/><stop offset="0.176" stop-color="#66a4de"/><stop offset="0.18" stop-color="#67a3dd"/><stop offset="0.184" stop-color="#67a2dd"/><stop offset="0.188" stop-color="#68a2dc"/><stop offset="0.191" stop-color="#69a1dc"/><stop offset="0.195" stop-color="#6aa0db"/><stop offset="0.199" stop-color="#6a9fda"/><stop offset="0.203" stop-color="#6b9eda"/><stop offset="0.207" stop-color="#6c9dd9"/><stop offset="0.211" stop-color="#6d9cd9"/><stop offset="0.215" stop-color="#6e9cd8"/><stop offset="0.219" stop-color="#6f9bd8"/><stop offset="0.223" stop-color="#709ad7"/><stop offset="0.227" stop-color="#7199d7"/><stop offset="0.23" stop-color="#7298d6"/><stop offset="0.234" stop-color="#7397d5"/><stop offset="0.238" stop-color="#7496d5"/><stop offset="0.242" stop-color="#7496d5"/><stop offset="0.246" stop-color="#7595d4"/><stop offset="0.25" stop-color="#7694d4"/><stop offset="0.254" stop-color="#7793d3"/><stop offset="0.258" stop-color="#7892d2"/><stop offset="0.262" stop-color="#7991d2"/><stop offset="0.266" stop-color="#7a90d1"/><stop offset="0.27" stop-color="#7b8fd1"/><stop offset="0.273" stop-color="#7b8ed0"/><stop offset="0.277" stop-color="#7c8dcf"/><stop offset="0.281" stop-color="#7d8ccf"/><stop offset="0.285" stop-color="#7e8bce"/><stop offset="0.289" stop-color="#7e8bce"/><stop offset="0.293" stop-color="#7f8acd"/><stop offset="0.297" stop-color="#8089cd"/><stop offset="0.301" stop-color="#8188cc"/><stop offset="0.305" stop-color="#8287cc"/><stop offset="0.309" stop-color="#8387cc"/><stop offset="0.313" stop-color="#8386cb"/><stop offset="0.316" stop-color="#8485cb"/><stop offset="0.32" stop-color="#8584ca"/><stop offset="0.324" stop-color="#8583ca"/><stop offset="0.328" stop-color="#8682c9"/><stop offset="0.332" stop-color="#8782c9"/><stop offset="0.336" stop-color="#8781c8"/><stop offset="0.34" stop-color="#8880c8"/><stop offset="0.344" stop-color="#897fc7"/><stop offset="0.348" stop-color="#8a7ec7"/><stop offset="0.352" stop-color="#8a7ec6"/><stop offset="0.355" stop-color="#8b7dc6"/><stop offset="0.359" stop-color="#8c7cc6"/><stop offset="0.363" stop-color="#8c7bc5"/><stop offset="0.367" stop-color="#8c7bc5"/><stop offset="0.371" stop-color="#8d7ac4"/><stop offset="0.375" stop-color="#8e79c4"/><stop offset="0.379" stop-color="#8e78c3"/><stop offset="0.383" stop-color="#8f77c3"/><stop offset="0.387" stop-color="#9077c3"/><stop offset="0.391" stop-color="#9177c2"/><stop offset="0.395" stop-color="#9176c2"/><stop offset="0.398" stop-color="#9275c2"/><stop offset="0.402" stop-color="#9274c1"/><stop offset="0.406" stop-color="#9374c1"/><stop offset="0.41" stop-color="#9473c0"/><stop offset="0.414" stop-color="#9472c0"/><stop offset="0.418" stop-color="#9572c0"/><stop offset="0.422" stop-color="#9571c0"/><stop offset="0.426" stop-color="#9671bf"/><stop offset="0.43" stop-color="#9770bf"/><stop offset="0.434" stop-color="#986fbe"/><stop offset="0.438" stop-color="#996ebe"/><stop offset="0.441" stop-color="#9a6dbe"/><stop offset="0.445" stop-color="#9b6cbd"/><stop offset="0.449" stop-color="#9b6cbd"/><stop offset="0.453" stop-color="#9c6cbd"/><stop offset="0.457" stop-color="#9d6bbc"/><stop offset="0.461" stop-color="#9d6abc"/><stop offset="0.465" stop-color="#9e69bb"/><stop offset="0.469" stop-color="#9f69bb"/><stop offset="0.473" stop-color="#a068bb"/><stop offset="0.477" stop-color="#a168bb"/><stop offset="0.48" stop-color="#a167ba"/><stop offset="0.484" stop-color="#a266ba"/><stop offset="0.488" stop-color="#a366b9"/><stop offset="0.492" stop-color="#a465b9"/><stop offset="0.496" stop-color="#a564b9"/><stop offset="0.5" stop-color="#a664b9"/><stop offset="0.504" stop-color="#a763b8"/><stop offset="0.508" stop-color="#a762b8"/><stop offset="0.512" stop-color="#a862b8"/><stop offset="0.516" stop-color="#a962b7"/><stop offset="0.52" stop-color="#a961b7"/><stop offset="0.523" stop-color="#aa61b7"/><stop offset="0.527" stop-color="#ab60b7"/><stop offset="0.531" stop-color="#ac60b7"/><stop offset="0.535" stop-color="#ac60b6"/><stop offset="0.539" stop-color="#ad5fb6"/><stop offset="0.543" stop-color="#ae5eb6"/><stop offset="0.547" stop-color="#af5eb5"/><stop offset="0.551" stop-color="#b05db5"/><stop offset="0.555" stop-color="#b15db5"/><stop offset="0.559" stop-color="#b15cb5"/><stop offset="0.563" stop-color="#b15cb5"/><stop offset="0.566" stop-color="#b25bb4"/><stop offset="0.57" stop-color="#b35bb4"/><stop offset="0.574" stop-color="#b45ab4"/><stop offset="0.578" stop-color="#b559b3"/><stop offset="0.582" stop-color="#b559b3"/><stop offset="0.586" stop-color="#b658b3"/><stop offset="0.59" stop-color="#b758b2"/><stop offset="0.594" stop-color="#b857b2"/><stop offset="0.598" stop-color="#b956b2"/><stop offset="0.602" stop-color="#ba56b2"/><stop offset="0.605" stop-color="#bb55b1"/><stop offset="0.609" stop-color="#bc55b1"/><stop offset="0.613" stop-color="#bd54b1"/><stop offset="0.617" stop-color="#be54b1"/><stop offset="0.621" stop-color="#bf53b0"/><stop offset="0.625" stop-color="#c052b0"/><stop offset="0.629" stop-color="#c152b0"/><stop offset="0.633" stop-color="#c251b0"/><stop offset="0.637" stop-color="#c351af"/><stop offset="0.641" stop-color="#c350af"/><stop offset="0.645" stop-color="#c44faf"/><stop offset="0.648" stop-color="#c54fae"/><stop offset="0.652" stop-color="#c64eae"/><stop offset="0.656" stop-color="#c74dae"/><stop offset="0.66" stop-color="#c84dae"/><stop offset="0.664" stop-color="#c94cad"/><stop offset="0.668" stop-color="#ca4cad"/><stop offset="0.672" stop-color="#cb4bad"/><stop offset="0.676" stop-color="#cc4aac"/><stop offset="0.68" stop-color="#cd49ac"/><stop offset="0.684" stop-color="#ce49ac"/><stop offset="0.688" stop-color="#cf48ac"/><stop offset="0.691" stop-color="#d048ab"/><stop offset="0.695" stop-color="#d147ab"/><stop offset="0.699" stop-color="#d246ab"/><stop offset="0.703" stop-color="#d445aa"/><stop offset="0.707" stop-color="#d545aa"/><stop offset="0.711" stop-color="#d644aa"/><stop offset="0.715" stop-color="#d743a9"/><stop offset="0.719" stop-color="#d842a9"/><stop offset="0.723" stop-color="#d942a9"/><stop offset="0.727" stop-color="#db41a8"/><stop offset="0.73" stop-color="#dc40a8"/><stop offset="0.734" stop-color="#dc3fa8"/><stop offset="0.738" stop-color="#dd3fa8"/><stop offset="0.742" stop-color="#de3ea7"/><stop offset="0.746" stop-color="#de3ea7"/><stop offset="0.75" stop-color="#df3da6"/><stop offset="0.754" stop-color="#df3da5"/><stop offset="0.758" stop-color="#e03da4"/><stop offset="0.762" stop-color="#e03da3"/><stop offset="0.766" stop-color="#e13da2"/><stop offset="0.77" stop-color="#e13ca1"/><stop offset="0.773" stop-color="#e13ca0"/><stop offset="0.777" stop-color="#e23b9e"/><stop offset="0.781" stop-color="#e23b9d"/><stop offset="0.785" stop-color="#e33b9c"/><stop offset="0.789" stop-color="#e33a9b"/><stop offset="0.793" stop-color="#e33a99"/><stop offset="0.797" stop-color="#e43a98"/><stop offset="0.801" stop-color="#e43a96"/><stop offset="0.805" stop-color="#e43995"/><stop offset="0.809" stop-color="#e53994"/><stop offset="0.813" stop-color="#e53992"/><stop offset="0.816" stop-color="#e63991"/><stop offset="0.82" stop-color="#e6398f"/><stop offset="0.824" stop-color="#e6388e"/><stop offset="0.828" stop-color="#e7388d"/><stop offset="0.832" stop-color="#e7388b"/><stop offset="0.836" stop-color="#e7398a"/><stop offset="0.84" stop-color="#e73989"/><stop offset="0.844" stop-color="#e83987"/><stop offset="0.848" stop-color="#e83886"/><stop offset="0.852" stop-color="#e83884"/><stop offset="0.855" stop-color="#e83883"/><stop offset="0.859" stop-color="#e83882"/><stop offset="0.863" stop-color="#e93880"/><stop offset="0.867" stop-color="#e9387f"/><stop offset="0.871" stop-color="#e9377e"/><stop offset="0.875" stop-color="#ea377c"/><stop offset="0.879" stop-color="#ea377b"/><stop offset="0.883" stop-color="#eb3679"/><stop offset="0.887" stop-color="#eb3678"/><stop offset="0.891" stop-color="#ec3677"/><stop offset="0.895" stop-color="#ec3675"/><stop offset="0.898" stop-color="#ed3674"/><stop offset="0.902" stop-color="#ed3673"/><stop offset="0.906" stop-color="#ed3672"/><stop offset="0.91" stop-color="#ee3670"/><stop offset="0.914" stop-color="#ee366e"/><stop offset="0.918" stop-color="#ef366d"/><stop offset="0.922" stop-color="#ef356c"/><stop offset="0.926" stop-color="#ef356b"/><stop offset="0.93" stop-color="#f03569"/><stop offset="0.934" stop-color="#f03568"/><stop offset="0.938" stop-color="#f03567"/><stop offset="0.941" stop-color="#f03566"/><stop offset="0.945" stop-color="#f03564"/><stop offset="0.949" stop-color="#f03563"/><stop offset="0.953" stop-color="#f03562"/><stop offset="0.957" stop-color="#f03561"/><stop offset="0.961" stop-color="#f03460"/><stop offset="0.965" stop-color="#f0355e"/><stop offset="0.969" stop-color="#f0355d"/><stop offset="0.973" stop-color="#f0355b"/><stop offset="0.977" stop-color="#f0355a"/><stop offset="0.98" stop-color="#f03659"/><stop offset="0.984" stop-color="#f03657"/><stop offset="0.988" stop-color="#f03656"/><stop offset="0.992" stop-color="#f03656"/><stop offset="0.996" stop-color="#f03654"/><stop offset="1" stop-color="#f03653"/></linearGradient></defs><g><g clip-path="url(#a)"><g clip-path="url(#b)"><g clip-path="url(#c)"><path d="M 64 496 L 448 496 L 448 16 L 64 16 Z M 64 496" fill="url(#d)"/></g></g></g></g></svg>