<?xml version="1.0" encoding="UTF-8"?><svg xmlns="http://www.w3.org/2000/svg" xmlns:xlink="http://www.w3.org/1999/xlink" fill="#000000" height="62" preserveAspectRatio="xMidYMid meet" version="1" viewBox="0.0 0.0 62.0 62.0" width="62" zoomAndPan="magnify"><g><g id="change1_1"><path d="M 49 54 L 49 58 C 49 59.660156 43.628906 61 37 61 C 30.371094 61 25 59.660156 25 58 L 25 54 C 25 55.660156 30.371094 57 37 57 C 43.628906 57 49 55.660156 49 54" fill="#969faa"/></g><g id="change1_2"><path d="M 43 51.402344 C 46.589844 51.917969 49 52.890625 49 54 C 49 55.660156 43.628906 57 37 57 C 30.371094 57 25 55.660156 25 54 C 25 52.890625 27.410156 51.917969 31 51.402344 L 31 53 L 43 53 L 43 51.402344" fill="#969faa"/></g><g id="change2_1"><path d="M 43 51.402344 L 43 53 L 31 53 L 31 47 L 43 47 L 43 51.402344" fill="#aab2bd"/></g><g id="change3_1"><path d="M 61 39 L 61 43 C 61 45.210938 59.210938 47 57 47 L 17 47 C 14.789062 47 13 45.210938 13 43 L 13 39 L 61 39" fill="#ccd1d9"/></g><g id="change4_1"><path d="M 21 33 L 21 39 L 13 39 L 13 19.71875 L 14.539062 18.589844 L 21 23.480469 L 21 33" fill="#69d6f4"/></g><g id="change4_2"><path d="M 61 19 L 61 39 L 53 39 L 53 15 L 57 15 C 59.210938 15 61 16.789062 61 19" fill="#69d6f4"/></g><g id="change5_1"><path d="M 47 29.5 L 47 39 L 27 39 L 27 1 L 47 1 L 47 29.5" fill="#e6e9ed"/></g><g id="change6_1"><path d="M 53 5 L 53 9 L 47 9 L 47 5 L 53 5" fill="#d3a06c"/></g><g id="change6_2"><path d="M 53 15 L 53 17 L 47 17 L 47 13 L 53 13 L 53 15" fill="#d3a06c"/></g><g id="change6_3"><path d="M 53 21 L 53 25 L 47 25 L 47 21 L 53 21" fill="#d3a06c"/></g><g id="change6_4"><path d="M 53 29 L 53 33 L 47 33 L 47 29 L 53 29" fill="#d3a06c"/></g><g id="change6_5"><path d="M 27 29 L 27 33 L 21 33 L 21 29 L 27 29" fill="#d3a06c"/></g><g id="change6_6"><path d="M 27 13 L 27 17 L 21 17 L 21 13 L 27 13" fill="#d3a06c"/></g><g id="change6_7"><path d="M 27 5 L 27 9 L 21 9 L 21 5 L 27 5" fill="#d3a06c"/></g><g id="change7_1"><path d="M 27 1 L 27 5 L 21 5 L 21 1 L 27 1" fill="#cf9e76"/></g><g id="change7_2"><path d="M 27 9 L 27 13 L 21 13 L 21 9 L 27 9" fill="#cf9e76"/></g><g id="change7_3"><path d="M 27 17 L 27 22.53125 L 21 18.140625 L 21 17 L 27 17" fill="#cf9e76"/></g><g id="change7_4"><path d="M 27 25 L 27 29 L 21 29 L 21 23.480469 L 23 25 L 27 25" fill="#cf9e76"/></g><g id="change7_5"><path d="M 27 33 L 27 39 L 21 39 L 21 33 L 27 33" fill="#cf9e76"/></g><g id="change7_6"><path d="M 53 33 L 53 39 L 47 39 L 47 33 L 53 33" fill="#cf9e76"/></g><g id="change7_7"><path d="M 53 25 L 53 29 L 47 29 L 47 25 L 53 25" fill="#cf9e76"/></g><g id="change7_8"><path d="M 53 17 L 53 21 L 47 21 L 47 17 L 53 17" fill="#cf9e76"/></g><g id="change7_9"><path d="M 53 9 L 53 13 L 47 13 L 47 9 L 53 9" fill="#cf9e76"/></g><g id="change7_10"><path d="M 53 1 L 53 5 L 47 5 L 47 1 L 53 1" fill="#cf9e76"/></g><g id="change8_1"><path d="M 29 24 L 29 25 L 23 25 L 21 23.480469 L 14.539062 18.589844 L 11.121094 16 L 6.667969 12.621094 C 7.949219 12.039062 8.871094 10.800781 8.980469 9.332031 L 14.539062 13.410156 L 14.550781 13.410156 L 18.082031 16 L 21 18.140625 L 27 22.53125 L 29 24" fill="#ffeaa7"/></g><g id="change8_2"><path d="M 11.121094 16 L 14.539062 18.589844 L 13 19.71875 L 8.980469 22.667969 C 8.871094 21.199219 7.949219 19.960938 6.667969 19.378906 L 11.121094 16" fill="#ffeaa7"/></g><g id="change8_3"><path d="M 21 13 L 21 13.859375 L 18.082031 16 L 14.550781 13.410156 L 21 8.511719 L 21 13" fill="#ffeaa7"/></g><g id="change9_1"><path d="M 40.109375 23.550781 C 40.648438 23.832031 41 24.390625 41 25 C 41 25.609375 40.648438 26.167969 40.109375 26.449219 L 35.339844 28.832031 C 35.121094 28.941406 34.871094 29 34.621094 29 C 33.71875 29 33 28.28125 33 27.378906 L 33 22.621094 C 33 21.71875 33.71875 21 34.621094 21 C 34.871094 21 35.121094 21.058594 35.339844 21.167969 L 40.109375 23.550781" fill="#ff826e"/></g><g id="change9_2"><path d="M 40.109375 7.550781 C 40.648438 7.832031 41 8.390625 41 9 C 41 9.609375 40.648438 10.167969 40.109375 10.449219 L 35.339844 12.832031 C 35.121094 12.941406 34.871094 13 34.621094 13 C 33.71875 13 33 12.28125 33 11.378906 L 33 6.621094 C 33 5.71875 33.71875 5 34.621094 5 C 34.871094 5 35.121094 5.058594 35.339844 5.167969 L 40.109375 7.550781" fill="#ff826e"/></g><g id="change10_1"><path d="M 57 46 L 17 46 C 15.34375 46 14 44.65625 14 43 L 14 40 L 60 40 L 60 43 C 60 44.65625 58.65625 46 57 46 Z M 42 52 L 32 52 L 32 48 L 42 48 Z M 47.964844 54.003906 C 47.394531 54.757812 43.457031 56 37 56 C 30.542969 56 26.605469 54.757812 26.035156 54.003906 C 26.277344 53.71875 27.324219 53.078125 30 52.582031 L 30 54 L 44 54 L 44 52.582031 C 46.675781 53.078125 47.722656 53.71875 47.964844 54.003906 Z M 37 60 C 30.324219 60 26.34375 58.671875 26 58 L 26 56.304688 C 28.730469 57.59375 33.660156 58 37 58 C 40.339844 58 45.28125 57.59375 48.007812 56.300781 L 48.011719 57.929688 C 47.65625 58.671875 43.675781 60 37 60 Z M 14.53125 19.839844 L 20 23.980469 L 20 38 L 14 38 L 14 20.226562 Z M 5 26 C 3.34375 26 2 24.65625 2 23 C 2 21.34375 3.34375 20 5 20 C 6.65625 20 8 21.34375 8 23 C 8 24.65625 6.65625 26 5 26 Z M 11.125 17.253906 L 12.871094 18.578125 L 9.574219 20.992188 C 9.292969 20.359375 8.878906 19.800781 8.375 19.335938 Z M 9.574219 11.007812 L 27.308594 24 L 23.335938 24 L 8.378906 12.664062 C 8.878906 12.199219 9.292969 11.640625 9.574219 11.007812 Z M 2 9 C 2 7.34375 3.34375 6 5 6 C 6.65625 6 8 7.34375 8 9 C 8 10.65625 6.65625 12 5 12 C 3.34375 12 2 10.65625 2 9 Z M 20 10.527344 L 20 13.351562 L 18.078125 14.761719 L 16.214844 13.394531 Z M 26 2 L 26 4 L 22 4 L 22 2 Z M 52 4 L 48 4 L 48 2 L 52 2 Z M 48 34 L 52 34 L 52 38 L 48 38 Z M 28 34 L 46 34 L 46 38 L 28 38 Z M 22 34 L 26 34 L 26 38 L 22 38 Z M 26 18 L 26 20.5625 L 22.503906 18 Z M 20 16.167969 L 19.773438 16 L 20 15.832031 Z M 26 8 L 22 8 L 22 6 L 26 6 Z M 46 16 L 28 16 L 28 2 L 46 2 Z M 52 8 L 48 8 L 48 6 L 52 6 Z M 52 16 L 48 16 L 48 14 L 52 14 Z M 48 30 L 52 30 L 52 32 L 48 32 Z M 52 20 L 48 20 L 48 18 L 52 18 Z M 52 24 L 48 24 L 48 22 L 52 22 Z M 52 28 L 48 28 L 48 26 L 52 26 Z M 26 14 L 26 16 L 22 16 L 22 14 Z M 22 10 L 26 10 L 26 12 L 22 12 Z M 28 26 L 30 26 L 30 23.492188 L 28 22.027344 L 28 18 L 46 18 L 46 32 L 28 32 Z M 22 30 L 26 30 L 26 32 L 22 32 Z M 52 12 L 48 12 L 48 10 L 52 10 Z M 22.664062 26 L 26 26 L 26 28 L 22 28 L 22 25.496094 Z M 57 16 C 58.65625 16 60 17.34375 60 19 L 60 38 L 54 38 L 54 16 Z M 57 14 L 54 14 L 54 0 L 20 0 L 20 8.019531 L 14.53125 12.160156 L 9.980469 8.828125 C 9.890625 6.152344 7.699219 4 5 4 C 2.242188 4 0 6.242188 0 9 C 0 11.757812 2.242188 14 5 14 C 5.523438 14 6.019531 13.898438 6.496094 13.746094 L 9.46875 16 L 6.496094 18.253906 C 6.019531 18.101562 5.523438 18 5 18 C 2.242188 18 0 20.242188 0 23 C 0 25.757812 2.242188 28 5 28 C 7.699219 28 9.890625 25.847656 9.980469 23.171875 L 12 21.695312 L 12 43 C 12 45.757812 14.242188 48 17 48 L 30 48 L 30 50.558594 C 26.035156 51.238281 24 52.390625 24 54 L 24 58 C 24 61.15625 32.171875 62 37 62 C 41.828125 62 50 61.15625 50 58 L 50 54 C 50 52.390625 47.964844 51.238281 44 50.558594 L 44 48 L 57 48 C 59.757812 48 62 45.757812 62 43 L 62 19 C 62 16.242188 59.757812 14 57 14" fill="inherit"/></g><g id="change10_2"><path d="M 47 44 L 49 44 L 49 42 L 47 42 L 47 44" fill="inherit"/></g><g id="change10_3"><path d="M 51 44 L 53 44 L 53 42 L 51 42 L 51 44" fill="inherit"/></g><g id="change10_4"><path d="M 55 44 L 57 44 L 57 42 L 55 42 L 55 44" fill="inherit"/></g><g id="change10_5"><path d="M 34 6.617188 C 34 6.277344 34.277344 6 34.617188 6 C 34.714844 6 34.808594 6.023438 34.894531 6.066406 L 39.65625 8.449219 C 39.867188 8.550781 40 8.765625 40 9 C 40 9.234375 39.867188 9.449219 39.65625 9.550781 L 34.894531 11.933594 C 34.503906 12.132812 34 11.816406 34 11.382812 Z M 34.617188 14 C 35.023438 14 35.425781 13.90625 35.789062 13.722656 L 40.554688 11.34375 C 41.445312 10.894531 42 9.996094 42 9 C 42 8.003906 41.445312 7.105469 40.550781 6.65625 L 35.789062 4.277344 C 35.425781 4.09375 35.023438 4 34.617188 4 C 33.175781 4 32 5.175781 32 6.617188 L 32 11.382812 C 32 12.824219 33.175781 14 34.617188 14" fill="inherit"/></g><g id="change10_6"><path d="M 39.65625 25.550781 L 34.894531 27.933594 C 34.503906 28.132812 34 27.820312 34 27.382812 L 34 22.617188 C 34 22.277344 34.277344 22 34.617188 22 C 34.714844 22 34.808594 22.023438 34.894531 22.066406 L 39.65625 24.449219 C 39.867188 24.550781 40 24.765625 40 25 C 40 25.234375 39.867188 25.449219 39.65625 25.550781 Z M 40.550781 22.65625 L 35.789062 20.277344 C 35.425781 20.09375 35.023438 20 34.617188 20 C 33.175781 20 32 21.175781 32 22.617188 L 32 27.382812 C 32 28.824219 33.175781 30 34.617188 30 C 35.023438 30 35.425781 29.90625 35.789062 29.722656 L 40.554688 27.34375 C 41.445312 26.894531 42 25.996094 42 25 C 42 24.003906 41.445312 23.105469 40.550781 22.65625" fill="inherit"/></g></g></svg>