<?xml version="1.0" encoding="UTF-8"?><svg xmlns="http://www.w3.org/2000/svg" xmlns:xlink="http://www.w3.org/1999/xlink" fill="#00979c" height="15.2" preserveAspectRatio="xMidYMid meet" version="1" viewBox="0.0 8.4 32.0 15.2" width="32" zoomAndPan="magnify">
 <g id="change1_1"><path d="m23.783 23.55c-2.044 0-3.8-0.7-5.33-2.1-0.95-0.87-1.733-1.937-2.454-3.046-0.72 1.1-1.504 2.175-2.454 3.046-1.653 1.515-3.547 2.197-5.8 2.087-4.269-0.017-7.745-3.394-7.745-7.543 0-4.16 3.495-7.544 7.8-7.544a8.51 8.51 0 0 1 6.05 2.378c0.826 0.77 1.524 1.66 2.16 2.593 0.636-0.933 1.334-1.824 2.16-2.593a8.51 8.51 0 0 1 6.05 -2.378c4.296 0 7.8 3.384 7.8 7.544 0 4.148-3.476 7.526-7.755 7.544a9.39 9.39 0 0 1 -0.462 0.011zm-6.22-7.656c0.853 1.383 1.68 2.67 2.688 3.594 1.138 1.043 2.337 1.472 3.887 1.4l0.07-0.002c2.827 0 5.128-2.2 5.128-4.88s-2.3-4.88-5.128-4.88a5.88 5.88 0 0 0 -4.236 1.665c-0.912 0.848-1.665 1.935-2.408 3.116zm-9.763-4.781c-2.827 0-5.128 2.2-5.128 4.88s2.3 4.88 5.128 4.88l0.07 0.002c1.55 0.082 2.75-0.347 3.887-1.4 1.008-0.924 1.836-2.2 2.688-3.594-0.744-1.18-1.497-2.268-2.408-3.116-1.22-1.135-2.567-1.665-4.237-1.665zm16.762 3.914v-1.444h-1.502v1.444h-1.444v1.496h1.444v1.455h1.503v-1.455h1.444v-1.496h-1.444m-18.935-0.027h4.746v1.542h-4.746z" fill="inherit"/></g>
</svg>