<?xml version="1.0" encoding="UTF-8"?><svg xmlns="http://www.w3.org/2000/svg" xmlns:xlink="http://www.w3.org/1999/xlink" fill="#000000" height="60" preserveAspectRatio="xMidYMid meet" version="1" viewBox="2.0 2.0 60.0 60.0" width="60" zoomAndPan="magnify"><g><g><path d="M 57 51 L 7 51 C 4.792969 51 3 49.210938 3 47 L 3 7 C 3 4.789062 4.792969 3 7 3 L 57 3 C 59.210938 3 61 4.789062 61 7 L 61 47 C 61 49.210938 59.210938 51 57 51" fill="#9aa1a1"/></g><g><path d="M 53 61 L 11 61 L 11 57 L 53 57 L 53 61" fill="#4e616d"/></g><g><path d="M 43 57 L 21 57 L 25 51 L 39 51 L 43 57" fill="#7d8d9c"/></g><g><path d="M 57 43 L 7 43 L 7 7 L 57 7 L 57 43" fill="#cdeef6"/></g><g><path d="M 58 48 L 53 48 L 53 46 L 58 46 L 58 48" fill="#3b495a"/></g><g><path d="M 51 48 L 49 48 L 49 46 L 51 46 L 51 48" fill="#3b495a"/></g><g><path d="M 35 48 L 30 48 L 30 46 L 35 46 L 35 48" fill="#3b495a"/></g><g><path d="M 8 48 L 6 48 L 6 46 L 8 46 L 8 48" fill="#3b495a"/></g><g><path d="M 32 25 L 22 25 L 22 15 L 32 15 L 32 25" fill="#cd4b4c"/></g><g><path d="M 27 22 C 26.742188 22 26.488281 21.902344 26.292969 21.707031 L 24.292969 19.707031 L 25.707031 18.292969 L 27 19.585938 L 34.292969 12.292969 L 35.707031 13.707031 L 27.707031 21.707031 C 27.511719 21.902344 27.257812 22 27 22" fill="#fef9e1"/></g><g><path d="M 18 38 C 17.621094 38 17.273438 37.785156 17.105469 37.449219 L 13.105469 29.449219 C 12.859375 28.953125 13.058594 28.351562 13.550781 28.105469 C 14.046875 27.859375 14.648438 28.058594 14.894531 28.550781 L 18 34.765625 L 21.105469 28.550781 C 21.351562 28.058594 21.953125 27.859375 22.449219 28.105469 C 22.941406 28.351562 23.140625 28.953125 22.894531 29.449219 L 18.894531 37.449219 C 18.726562 37.785156 18.378906 38 18 38" fill="#cd4b4c"/></g><g><path d="M 27 36 L 31 36 L 31 30 L 27 30 Z M 32 38 L 26 38 C 25.449219 38 25 37.550781 25 37 L 25 29 C 25 28.449219 25.449219 28 26 28 L 32 28 C 32.550781 28 33 28.449219 33 29 L 33 37 C 33 37.550781 32.550781 38 32 38" fill="#cd4b4c"/></g><g><path d="M 42 30 L 36 30 C 35.449219 30 35 29.550781 35 29 C 35 28.449219 35.449219 28 36 28 L 42 28 C 42.550781 28 43 28.449219 43 29 C 43 29.550781 42.550781 30 42 30" fill="#cd4b4c"/></g><g><path d="M 39 38 C 38.449219 38 38 37.550781 38 37 L 38 29 C 38 28.449219 38.449219 28 39 28 C 39.550781 28 40 28.449219 40 29 L 40 37 C 40 37.550781 39.550781 38 39 38" fill="#cd4b4c"/></g><g><path d="M 51 38 L 46 38 C 45.449219 38 45 37.550781 45 37 L 45 29 C 45 28.449219 45.449219 28 46 28 L 51 28 C 51.550781 28 52 28.449219 52 29 C 52 29.550781 51.550781 30 51 30 L 47 30 L 47 36 L 51 36 C 51.550781 36 52 36.449219 52 37 C 52 37.550781 51.550781 38 51 38" fill="#cd4b4c"/></g><g><path d="M 51 34 L 46 34 C 45.449219 34 45 33.550781 45 33 C 45 32.449219 45.449219 32 46 32 L 51 32 C 51.550781 32 52 32.449219 52 33 C 52 33.550781 51.550781 34 51 34" fill="#cd4b4c"/></g><g><path d="M 17 15 C 17 16.105469 16.105469 17 15 17 C 13.894531 17 13 16.105469 13 15 C 13 13.894531 13.894531 13 15 13 C 16.105469 13 17 13.894531 17 15" fill="#f9bb4b"/></g><g><path d="M 17 25 L 13 25 L 13 21 C 13 19.894531 13.894531 19 15 19 C 16.105469 19 17 19.894531 17 21 L 17 25" fill="#5181be"/></g><g><path d="M 41 17 L 37 17 L 37 15 L 41 15 L 41 17" fill="#87c8c2"/></g><g><path d="M 53 17 L 43 17 L 43 15 L 53 15 L 53 17" fill="#87c8c2"/></g><g><path d="M 41 21 L 37 21 L 37 19 L 41 19 L 41 21" fill="#87c8c2"/></g><g><path d="M 53 21 L 43 21 L 43 19 L 53 19 L 53 21" fill="#87c8c2"/></g><g><path d="M 41 25 L 37 25 L 37 23 L 41 23 L 41 25" fill="#87c8c2"/></g><g><path d="M 53 25 L 43 25 L 43 23 L 53 23 L 53 25" fill="#87c8c2"/></g><g><path d="M 60 47 C 60 48.65625 58.65625 50 57 50 L 7 50 C 5.34375 50 4 48.65625 4 47 L 4 7 C 4 5.34375 5.34375 4 7 4 L 57 4 C 58.65625 4 60 5.34375 60 7 Z M 41.132812 56 L 22.867188 56 L 25.535156 52 L 38.464844 52 Z M 52 58 L 52 60 L 12 60 L 12 58 Z M 57 2 L 7 2 C 4.242188 2 2 4.242188 2 7 L 2 47 C 2 49.757812 4.242188 52 7 52 L 23.132812 52 L 20.464844 56 L 11 56 C 10.449219 56 10 56.449219 10 57 L 10 61 C 10 61.550781 10.449219 62 11 62 L 53 62 C 53.550781 62 54 61.550781 54 61 L 54 57 C 54 56.449219 53.550781 56 53 56 L 43.535156 56 L 40.867188 52 L 57 52 C 59.757812 52 62 49.757812 62 47 L 62 7 C 62 4.242188 59.757812 2 57 2" fill="inherit"/></g><g><path d="M 8 8 L 56 8 L 56 42 L 8 42 Z M 6 44 L 58 44 L 58 6 L 6 6 L 6 44" fill="inherit"/></g><g><path d="M 53 48 L 58 48 L 58 46 L 53 46 L 53 48" fill="inherit"/></g><g><path d="M 49 48 L 51 48 L 51 46 L 49 46 L 49 48" fill="inherit"/></g><g><path d="M 30 48 L 35 48 L 35 46 L 30 46 L 30 48" fill="inherit"/></g><g><path d="M 6 48 L 8 48 L 8 46 L 6 46 L 6 48" fill="inherit"/></g><g><path d="M 31 24 L 23 24 L 23 16 L 30.585938 16 L 27 19.585938 L 25.707031 18.292969 L 24.292969 19.707031 L 26.292969 21.707031 C 26.488281 21.902344 26.742188 22 27 22 C 27.257812 22 27.511719 21.902344 27.707031 21.707031 L 31 18.414062 Z M 34.292969 12.292969 L 32.460938 14.125 C 32.320312 14.050781 32.167969 14 32 14 L 22 14 C 21.449219 14 21 14.449219 21 15 L 21 25 C 21 25.550781 21.449219 26 22 26 L 32 26 C 32.550781 26 33 25.550781 33 25 L 33 16.414062 L 35.707031 13.707031 L 34.292969 12.292969" fill="inherit"/></g><g><path d="M 22.449219 28.105469 C 21.953125 27.859375 21.351562 28.058594 21.105469 28.550781 L 18 34.765625 L 14.894531 28.550781 C 14.648438 28.058594 14.046875 27.859375 13.550781 28.105469 C 13.058594 28.351562 12.859375 28.953125 13.105469 29.449219 L 17.105469 37.449219 C 17.273438 37.785156 17.621094 38 18 38 C 18.378906 38 18.726562 37.785156 18.894531 37.449219 L 22.894531 29.449219 C 23.140625 28.953125 22.941406 28.351562 22.449219 28.105469" fill="inherit"/></g><g><path d="M 31 36 L 27 36 L 27 30 L 31 30 Z M 32 28 L 26 28 C 25.449219 28 25 28.449219 25 29 L 25 37 C 25 37.550781 25.449219 38 26 38 L 32 38 C 32.550781 38 33 37.550781 33 37 L 33 29 C 33 28.449219 32.550781 28 32 28" fill="inherit"/></g><g><path d="M 42 28 L 36 28 C 35.449219 28 35 28.449219 35 29 C 35 29.550781 35.449219 30 36 30 L 38 30 L 38 37 C 38 37.550781 38.449219 38 39 38 C 39.550781 38 40 37.550781 40 37 L 40 30 L 42 30 C 42.550781 30 43 29.550781 43 29 C 43 28.449219 42.550781 28 42 28" fill="inherit"/></g><g><path d="M 51 30 C 51.550781 30 52 29.550781 52 29 C 52 28.449219 51.550781 28 51 28 L 46 28 C 45.449219 28 45 28.449219 45 29 L 45 37 C 45 37.550781 45.449219 38 46 38 L 51 38 C 51.550781 38 52 37.550781 52 37 C 52 36.449219 51.550781 36 51 36 L 47 36 L 47 34 L 51 34 C 51.550781 34 52 33.550781 52 33 C 52 32.449219 51.550781 32 51 32 L 47 32 L 47 30 L 51 30" fill="inherit"/></g><g><path d="M 15 16 C 14.449219 16 14 15.550781 14 15 C 14 14.449219 14.449219 14 15 14 C 15.550781 14 16 14.449219 16 15 C 16 15.550781 15.550781 16 15 16 Z M 18 15 C 18 13.34375 16.65625 12 15 12 C 13.34375 12 12 13.34375 12 15 C 12 16.65625 13.34375 18 15 18 C 16.65625 18 18 16.65625 18 15" fill="inherit"/></g><g><path d="M 16 24 L 14 24 L 14 21 C 14 20.449219 14.449219 20 15 20 C 15.550781 20 16 20.449219 16 21 Z M 18 21 C 18 19.34375 16.65625 18 15 18 C 13.34375 18 12 19.34375 12 21 L 12 26 L 18 26 L 18 21" fill="inherit"/></g><g><path d="M 41 15 L 37 15 L 37 17 L 41 17 L 41 15" fill="inherit"/></g><g><path d="M 43 17 L 53 17 L 53 15 L 43 15 L 43 17" fill="inherit"/></g><g><path d="M 41 19 L 37 19 L 37 21 L 41 21 L 41 19" fill="inherit"/></g><g><path d="M 43 21 L 53 21 L 53 19 L 43 19 L 43 21" fill="inherit"/></g><g><path d="M 41 23 L 37 23 L 37 25 L 41 25 L 41 23" fill="inherit"/></g><g><path d="M 43 25 L 53 25 L 53 23 L 43 23 L 43 25" fill="inherit"/></g></g></svg>