<?xml version="1.0" encoding="UTF-8"?><svg xmlns="http://www.w3.org/2000/svg" xmlns:xlink="http://www.w3.org/1999/xlink" fill="#000000" height="27.8" preserveAspectRatio="xMidYMid meet" version="1" viewBox="-0.0 16.1 64.0 27.8" width="64" zoomAndPan="magnify">
 <defs>
  <linearGradient gradientUnits="userSpaceOnUse" id="A" x1="2041.4" x2="2041.4" xlink:actuate="onLoad" xlink:show="other" xlink:type="simple" xmlns:xlink="http://www.w3.org/1999/xlink" y1="733.81" y2="687.78">
   <stop offset="0" stop-color="#faa21b"/>
   <stop offset="1" stop-color="#f15623"/>
  </linearGradient>
 </defs>
 <path d="m1986.3 716.21c-0.475-0.183-0.602-0.373-0.606-0.74v-19.988c0.01-0.385 0.304-0.706 0.68-0.744 0.016-0.001 17.345-0.01 17.457-0.01a6.3 6.3 0 0 1 6.298 6.298 6.3 6.3 0 0 1 -8.733 5.809c-0.5 5.675-5.26 10.128-11.066 10.128-1.42 0-2.805-0.28-4.028-0.754m-2.587-1.415l-0.285-14.187 0.285-5.15c0.01-0.376 0.316-0.686 0.694-0.686a0.7 0.7 0 0 1 0.693 0.691v-0.005l0.31 5.15-0.31 14.188c-0.01 0.38-0.316 0.69-0.693 0.69a0.7 0.7 0 0 1 -0.694 -0.693m-2.107-1.178l-0.244-13.003c0-0.01 0.244-5.228 0.244-5.228a0.66 0.66 0 0 1 0.65 -0.644 0.66 0.66 0 0 1 0.65 0.647v-0.003 0.003l0.274 5.22-0.274 13.01a0.66 0.66 0 0 1 -0.65 0.646c-0.352 0-0.643-0.3-0.65-0.647m-6.3-1.363l-0.322-11.64 0.323-5.345c0.01-0.286 0.235-0.512 0.518-0.512s0.51 0.227 0.52 0.514v0.003l0.363 5.34-0.363 11.64c-0.01 0.3-0.237 0.516-0.52 0.516a0.52 0.52 0 0 1 -0.519 -0.516m2.083-0.298l-0.296-11.344 0.297-5.293c0.01-0.31 0.254-0.558 0.563-0.558s0.553 0.247 0.562 0.56v-0.003l0.333 5.294-0.333 11.344c-0.01 0.314-0.255 0.56-0.562 0.56s-0.557-0.247-0.564-0.56m-4.15-0.08l-0.35-11.262 0.35-5.377a0.48 0.48 0 0 1 0.475 -0.469 0.48 0.48 0 0 1 0.475 0.471l0.393 5.375-0.393 11.263c-0.01 0.264-0.22 0.47-0.475 0.47a0.48 0.48 0 0 1 -0.475 -0.472m6.25-0.334l-0.27-10.93 0.27-5.26c0.01-0.335 0.274-0.6 0.607-0.6s0.598 0.264 0.605 0.603v-0.004l0.304 5.26-0.304 10.93a0.61 0.61 0 0 1 -0.605 0.604c-0.333 0-0.6-0.266-0.607-0.604m-8.3-0.53c0-0.001-0.374-10.394-0.374-10.394l0.374-5.433c0.01-0.238 0.2-0.426 0.432-0.426a0.44 0.44 0 0 1 0.432 0.427l0.423 5.432-0.423 10.394a0.44 0.44 0 0 1 -0.432 0.427c-0.232 0-0.42-0.188-0.432-0.427m-2.034-1.934l-0.4-8.46 0.4-5.466c0.01-0.214 0.18-0.382 0.387-0.382s0.376 0.168 0.388 0.383l0.453 5.467-0.453 8.46c-0.013 0.214-0.183 0.384-0.388 0.384s-0.377-0.17-0.387-0.384m-4.018-2.853l-0.452-5.605 0.452-5.422c0.013-0.168 0.142-0.294 0.3-0.294s0.286 0.126 0.3 0.294l0.512 5.422-0.512 5.607c-0.015 0.167-0.143 0.294-0.3 0.294s-0.288-0.128-0.3-0.296m-1.984-0.148c0-0.001-0.478-5.456-0.478-5.456l0.478-5.256c0.015-0.147 0.122-0.252 0.257-0.252s0.24 0.105 0.256 0.25l0.543 5.257-0.542 5.456c-0.016 0.145-0.124 0.25-0.257 0.25s-0.243-0.107-0.257-0.25m3.985-0.258l-0.425-5.2 0.425-5.467a0.35 0.35 0 0 1 0.344 -0.34c0.182 0 0.33 0.146 0.344 0.34l0.484 5.468-0.484 5.202c-0.015 0.19-0.16 0.336-0.344 0.336s-0.332-0.145-0.344-0.34m-5.953-0.6c0-0.001-0.504-4.597-0.504-4.597l0.504-4.497c0.015-0.12 0.105-0.207 0.214-0.207s0.195 0.084 0.212 0.206l0.572 4.498-0.572 4.597c-0.02 0.122-0.106 0.207-0.213 0.207s-0.2-0.087-0.214-0.207m-1.885-1.754l-0.374-2.843 0.374-2.795c0.015-0.118 0.1-0.2 0.206-0.2s0.188 0.082 0.204 0.2l0.444 2.796-0.444 2.844c-0.015 0.117-0.1 0.2-0.204 0.2s-0.192-0.082-0.206-0.2" fill="url(#A)" transform="matrix(1.25 0 0 -1.25 -2448.7 912.31)"/>
</svg>