<?xml version="1.0" encoding="UTF-8"?><svg xmlns="http://www.w3.org/2000/svg" xmlns:xlink="http://www.w3.org/1999/xlink" fill="#000000" height="52.4" preserveAspectRatio="xMidYMid meet" version="1" viewBox="2.0 4.6 60.4 52.4" width="60.4" zoomAndPan="magnify"><g fill="#100f0d" id="change1_1"><path d="M 55 27 C 54.449219 27 54 27.449219 54 28 L 54 53 C 54 54.101562 53.101562 55 52 55 L 6 55 C 4.898438 55 4 54.101562 4 53 L 4 23 C 4 21.898438 4.898438 21 6 21 L 44.066406 21 C 44.617188 21 45.066406 20.550781 45.066406 20 C 45.066406 19.449219 44.617188 19 44.066406 19 L 6 19 C 3.792969 19 2 20.792969 2 23 L 2 53 C 2 55.207031 3.792969 57 6 57 L 52 57 C 54.207031 57 56 55.207031 56 53 L 56 28 C 56 27.449219 55.550781 27 55 27" fill="inherit"/><path d="M 11 32 L 9 32 L 9 30 L 11 30 Z M 13 29 C 13 28.449219 12.550781 28 12 28 L 8 28 C 7.449219 28 7 28.449219 7 29 L 7 33 C 7 33.550781 7.449219 34 8 34 L 12 34 C 12.550781 34 13 33.550781 13 33 L 13 29" fill="inherit"/><path d="M 11 40 L 9 40 L 9 38 L 11 38 Z M 13 37 C 13 36.449219 12.550781 36 12 36 L 8 36 C 7.449219 36 7 36.449219 7 37 L 7 41 C 7 41.550781 7.449219 42 8 42 L 12 42 C 12.550781 42 13 41.550781 13 41 L 13 37" fill="inherit"/><path d="M 8 48 C 7.449219 48 7 48.449219 7 49 C 7 49.550781 7.449219 50 8 50 L 12 50 C 12.550781 50 13 49.550781 13 49 L 13 45 C 13 44.449219 12.550781 44 12 44 L 8 44 C 7.449219 44 7 44.449219 7 45 C 7 45.550781 7.449219 46 8 46 L 11 46 L 11 48 L 8 48" fill="inherit"/><path d="M 22 34.234375 L 24.382812 39 L 19.617188 39 Z M 27 36.234375 L 28.382812 39 L 26.617188 39 L 26.117188 38 Z M 34 30 C 34.550781 30 35 29.550781 35 29 L 35 26 C 35 25.449219 34.550781 25 34 25 L 18 25 C 17.449219 25 17 25.449219 17 26 L 17 40 C 17 40.550781 17.449219 41 18 41 L 34 41 C 34.550781 41 35 40.550781 35 40 L 35 33 C 35 32.449219 34.550781 32 34 32 C 33.449219 32 33 32.449219 33 33 L 33 39 L 30.617188 39 L 27.894531 33.550781 C 27.554688 32.875 26.445312 32.875 26.105469 33.550781 L 25 35.765625 L 22.894531 31.550781 C 22.554688 30.875 21.445312 30.875 21.105469 31.550781 L 19 35.765625 L 19 27 L 33 27 L 33 29 C 33 29.550781 33.449219 30 34 30" fill="inherit"/><path d="M 28 30 C 28 30.550781 28.449219 31 29 31 C 29.550781 31 30 30.550781 30 30 C 30 29.449219 29.550781 29 29 29 C 28.449219 29 28 29.449219 28 30" fill="inherit"/><path d="M 23 49 L 19 49 L 19 45 L 23 45 Z M 18 43 C 17.449219 43 17 43.449219 17 44 L 17 50 C 17 50.550781 17.449219 51 18 51 L 24 51 C 24.550781 51 25 50.550781 25 50 L 25 44 C 25 43.449219 24.550781 43 24 43 L 18 43" fill="inherit"/><path d="M 33 49 L 29 49 L 29 45 L 33 45 Z M 34 43 L 28 43 C 27.449219 43 27 43.449219 27 44 L 27 50 C 27 50.550781 27.449219 51 28 51 L 34 51 C 34.550781 51 35 50.550781 35 50 L 35 44 C 35 43.449219 34.550781 43 34 43" fill="inherit"/><path d="M 41.332031 27 C 41.882812 27 42.332031 26.550781 42.332031 26 C 42.332031 25.449219 41.882812 25 41.332031 25 L 38 25 C 37.449219 25 37 25.449219 37 26 L 37 50 C 37 50.550781 37.449219 51 38 51 L 50 51 C 50.550781 51 51 50.550781 51 50 L 51 36.195312 C 51 35.640625 50.550781 35.195312 50 35.195312 C 49.449219 35.195312 49 35.640625 49 36.195312 L 49 49 L 39 49 L 39 27 L 41.332031 27" fill="inherit"/><path d="M 42 43 L 46 43 C 46.550781 43 47 42.550781 47 42 C 47 41.449219 46.550781 41 46 41 L 42 41 C 41.449219 41 41 41.449219 41 42 C 41 42.550781 41.449219 43 42 43" fill="inherit"/><path d="M 42 47 L 46 47 C 46.550781 47 47 46.550781 47 46 C 47 45.449219 46.550781 45 46 45 L 42 45 C 41.449219 45 41 45.449219 41 46 C 41 46.550781 41.449219 47 42 47" fill="inherit"/><path d="M 60.464844 5.410156 C 59.023438 4.578125 57.207031 5.035156 56.328125 6.445312 L 41.519531 30.230469 C 41.429688 30.371094 41.378906 30.53125 41.371094 30.699219 L 40.96875 37.394531 C 40.945312 37.773438 41.136719 38.132812 41.464844 38.320312 C 41.621094 38.410156 41.792969 38.453125 41.964844 38.453125 C 42.15625 38.453125 42.347656 38.398438 42.515625 38.289062 L 48.113281 34.59375 C 48.253906 34.5 48.367188 34.375 48.445312 34.230469 L 57.867188 16.574219 C 58.128906 16.089844 57.945312 15.480469 57.457031 15.222656 C 56.972656 14.964844 56.363281 15.148438 56.105469 15.632812 L 46.800781 33.0625 L 43.085938 35.519531 L 43.351562 31.070312 L 58.027344 7.503906 C 58.332031 7.011719 58.960938 6.851562 59.464844 7.144531 C 59.96875 7.433594 60.148438 8.058594 59.875 8.570312 L 57.988281 12.101562 C 57.726562 12.589844 57.914062 13.195312 58.402344 13.457031 C 58.886719 13.714844 59.492188 13.53125 59.753906 13.042969 L 61.636719 9.511719 C 62.421875 8.042969 61.90625 6.242188 60.464844 5.410156" fill="inherit"/></g></svg>