<?xml version="1.0" encoding="UTF-8"?><svg xmlns="http://www.w3.org/2000/svg" xmlns:xlink="http://www.w3.org/1999/xlink" fill="#000000" height="7.7" preserveAspectRatio="xMidYMid meet" version="1" viewBox="1.3 -0.0 5.1 7.7" width="5.1" zoomAndPan="magnify">
 <g id="change1_1"><path d="m2.56 7.68a1.28 1.28 0 0 0 1.28 -1.28v-1.28h-1.28a1.28 1.28 0 0 0 0 2.56z" fill="#0acf83"/></g>
 <g id="change2_1"><path d="m1.28 3.84a1.28 1.28 0 0 1 1.28 -1.28h1.28v2.56h-1.28a1.28 1.28 0 0 1 -1.28 -1.28z" fill="#a259ff"/></g>
 <g id="change3_1"><path d="m1.28 1.28a1.28 1.28 0 0 1 1.279 -1.28h1.28v2.56h-1.279a1.28 1.28 0 0 1 -1.28 -1.28z" fill="#f24e1e"/></g>
 <g id="change4_1"><path d="m3.84 0h1.28a1.28 1.28 0 0 1 0 2.56h-1.28z" fill="#ff7262"/></g>
 <g id="change5_1"><path d="m6.4 3.84a1.28 1.28 0 0 1 -2.56 0 1.28 1.28 0 0 1 2.56 0z" fill="#1abcfe"/></g>
</svg>