<?xml version="1.0" encoding="UTF-8"?><svg xmlns="http://www.w3.org/2000/svg" xmlns:xlink="http://www.w3.org/1999/xlink" fill="#000000" height="51.5" preserveAspectRatio="xMidYMid meet" version="1" viewBox="-0.0 6.3 64.0 51.5" width="64" zoomAndPan="magnify">
 <g id="change1_1"><path d="m40.728 20.488l2.05 0.035 5.57-5.57 0.27-2.36c-4.418-3.936-10.251-6.333-16.625-6.333-11.54 0-21.28 7.852-24.163 18.488 0.608-0.424 1.908-0.106 1.908-0.106l11.13-1.83s0.572-0.947 0.862-0.9a13.88 13.88 0 0 1 10.27 -4.537c3.3 0.007 6.34 1.173 8.728 3.102z" fill="#ea4335"/></g>
 <g id="change2_1"><path d="m56.17 24.77c-1.293-4.77-3.958-8.982-7.555-12.177l-7.887 7.887c3.16 2.55 5.187 6.452 5.187 10.82v1.392c3.837 0 6.954 3.124 6.954 6.954 0 3.837-3.124 6.954-6.954 6.954h-13.908l-1.392 1.4v8.346l1.392 1.385h13.908a18.11 18.11 0 0 0 18.085 -18.084c-0.007-6.155-3.1-11.6-7.83-14.876z" fill="#4285f4"/></g>
 <g id="change3_1"><path d="m18.085 57.74h13.9v-11.14h-13.9a6.89 6.89 0 0 1 -2.862 -0.622l-2.007 0.615-5.57 5.57-0.488 1.88a18 18 0 0 0 10.926 3.689z" fill="#34a853"/></g>
 <g id="change4_1"><path d="m18.085 21.57a18.11 18.11 0 0 0 -18.085 18.084c0 5.873 2.813 11.095 7.166 14.403l8.064-8.064a6.96 6.96 0 0 1 -4.099 -6.339c0-3.837 3.124-6.954 6.954-6.954 2.82 0 5.244 1.7 6.34 4.1l8.064-8.064c-3.307-4.353-8.53-7.166-14.403-7.166z" fill="#fbbc05"/></g>
</svg>