<?xml version="1.0" encoding="UTF-8"?><svg xmlns="http://www.w3.org/2000/svg" xmlns:xlink="http://www.w3.org/1999/xlink" enable-background="new 0 0 128 128" fill="#000000" height="126" preserveAspectRatio="xMidYMid meet" version="1" viewBox="1.0 1.0 126.1 126.0" width="126.1" zoomAndPan="magnify">
 <g id="change1_1"><path d="m53.2 52.1c0-5.3-3.4-5.1-3.4-5.1h-13.8v11h12.9c2.3 0 4.3-0.6 4.3-5.9z" fill="inherit"/></g>
 <g id="change1_2"><path d="m49.8 66h-13.8v14h13c2 0 5.8-0.8 5.8-6.8 0.1-7.1-5-7.2-5-7.2z" fill="inherit"/></g>
 <g id="change1_3"><path d="m95.4 1h-62.8c-17.4 0-31.6 14.2-31.6 31.6v62.9c0 17.3 14.2 31.5 31.6 31.5h62.9c17.4 0 31.6-14.2 31.6-31.6v-62.8c-0.1-17.4-14.3-31.6-31.7-31.6zm-20.4 40h21v5h-21zm-9.8 32.9c0 15.6-15.4 16.1-15.4 16.1h-24.8v-52h24.7c7.7 0 13.8 4.4 13.8 13.6s-7.4 9.7-7.4 9.7c9.8-0.1 9.1 12.6 9.1 12.6zm37.7-0.9h-25.3c0 10 8.6 9.2 8.6 9.2 8.1 0 7.8-5.2 7.8-5.2h8.6c0 14-16.7 13.4-16.7 13.4-20 0-18.7-19.7-18.7-19.7s0-19.8 18.7-19.8c19.7-0.1 17 22.1 17 22.1z" fill="inherit"/></g>
 <g id="change1_4"><path d="m86.1 58.1c-7.5 0-8.6 7.9-8.6 7.9h16s0.1-7.9-7.4-7.9z" fill="inherit"/></g>
</svg>