<?xml version="1.0" encoding="UTF-8"?><svg xmlns="http://www.w3.org/2000/svg" xmlns:xlink="http://www.w3.org/1999/xlink" fill="#000000" height="73.9" preserveAspectRatio="xMidYMid meet" version="1" viewBox="0.0 0.0 80.7 73.9" width="80.7" zoomAndPan="magnify"><defs><clipPath id="a"><path d="M 0 0 L 80.671875 0 L 80.671875 54 L 0 54 Z M 0 0"/></clipPath><clipPath id="b"><path d="M 23 70 L 58 70 L 58 73.941406 L 23 73.941406 Z M 23 70"/></clipPath><clipPath id="c"><path d="M 31 63 L 49 63 L 49 73.941406 L 31 73.941406 Z M 31 63"/></clipPath><clipPath id="d"><path d="M 0 50 L 80.671875 50 L 80.671875 68 L 0 68 Z M 0 50"/></clipPath></defs><g><g clip-path="url(#a)" id="change1_1"><path d="M 3.359375 50.410156 L 77.304688 50.410156 L 77.304688 6.71875 C 77.304688 4.863281 75.796875 3.355469 73.945312 3.355469 L 6.722656 3.355469 C 4.867188 3.355469 3.359375 4.863281 3.359375 6.71875 Z M 78.988281 53.773438 L 1.679688 53.773438 C 0.753906 53.773438 0 53.019531 0 52.09375 L 0 6.71875 C 0 3.011719 3.015625 -0.00390625 6.722656 -0.00390625 L 73.945312 -0.00390625 C 77.652344 -0.00390625 80.667969 3.011719 80.667969 6.71875 L 80.667969 52.09375 C 80.667969 53.019531 79.914062 53.773438 78.988281 53.773438" fill="#7c3ea3"/></g><g clip-path="url(#b)" id="change1_5"><path d="M 55.457031 73.941406 L 25.207031 73.941406 C 24.28125 73.941406 23.527344 73.1875 23.527344 72.257812 C 23.527344 71.332031 24.28125 70.578125 25.207031 70.578125 L 55.457031 70.578125 C 56.386719 70.578125 57.140625 71.332031 57.140625 72.257812 C 57.140625 73.1875 56.386719 73.941406 55.457031 73.941406" fill="#7c3ea3"/></g><g id="change2_1"><path d="M 47.054688 72.257812 L 33.613281 72.257812 L 33.613281 65.535156 L 47.054688 65.535156 L 47.054688 72.257812" fill="#ffffff"/></g><g clip-path="url(#c)" id="change1_3"><path d="M 35.292969 70.578125 L 45.375 70.578125 L 45.375 67.21875 L 35.292969 67.21875 Z M 47.054688 73.941406 L 33.613281 73.941406 C 32.683594 73.941406 31.929688 73.1875 31.929688 72.257812 L 31.929688 65.535156 C 31.929688 64.609375 32.683594 63.855469 33.613281 63.855469 L 47.054688 63.855469 C 47.984375 63.855469 48.738281 64.609375 48.738281 65.535156 L 48.738281 72.257812 C 48.738281 73.1875 47.984375 73.941406 47.054688 73.941406" fill="#7c3ea3"/></g><g id="change3_1"><path d="M 1.679688 60.496094 L 1.679688 52.09375 L 78.988281 52.09375 L 78.988281 60.496094 C 78.988281 63.28125 76.730469 65.535156 73.945312 65.535156 L 6.722656 65.535156 C 3.9375 65.535156 1.679688 63.28125 1.679688 60.496094" fill="#d2b0dd"/></g><g clip-path="url(#d)" id="change1_2"><path d="M 76.667969 66.410156 C 76.09375 66.410156 75.558594 66.125 75.253906 65.636719 C 75.019531 65.265625 74.9375 64.8125 75.019531 64.378906 C 75.121094 63.957031 75.371094 63.570312 75.742188 63.335938 C 75.742188 63.335938 75.757812 63.335938 75.757812 63.316406 C 76.515625 62.832031 77.589844 63.066406 78.078125 63.824219 C 78.582031 64.59375 78.363281 65.636719 77.574219 66.15625 C 77.304688 66.324219 76.988281 66.410156 76.667969 66.410156 Z M 70.097656 67.21875 L 6.722656 67.21875 C 3.023438 67.21875 0 64.210938 0 60.496094 L 0 52.09375 C 0 51.65625 0.183594 51.21875 0.488281 50.898438 C 0.808594 50.597656 1.242188 50.410156 1.679688 50.410156 L 78.988281 50.410156 C 79.421875 50.410156 79.859375 50.597656 80.179688 50.898438 C 80.480469 51.21875 80.667969 51.65625 80.667969 52.09375 L 80.667969 58.816406 C 80.667969 59.738281 79.910156 60.496094 78.988281 60.496094 C 78.0625 60.496094 77.304688 59.738281 77.304688 58.816406 L 77.304688 53.773438 L 3.359375 53.773438 L 3.359375 60.496094 C 3.359375 62.34375 4.875 63.855469 6.722656 63.855469 L 70.097656 63.855469 C 71.039062 63.855469 71.777344 64.613281 71.777344 65.535156 C 71.777344 66.460938 71.039062 67.21875 70.097656 67.21875" fill="#7c3ea3"/></g><g id="change1_4"><path d="M 42.015625 60.496094 L 38.652344 60.496094 C 37.726562 60.496094 36.972656 59.742188 36.972656 58.816406 C 36.972656 57.886719 37.726562 57.132812 38.652344 57.132812 L 42.015625 57.132812 C 42.941406 57.132812 43.695312 57.886719 43.695312 58.816406 C 43.695312 59.742188 42.941406 60.496094 42.015625 60.496094" fill="#7c3ea3"/></g><g id="change4_1"><path d="M 15.992188 35.285156 C 12.734375 35.285156 10.082031 32.648438 10.082031 29.40625 L 10.082031 20.160156 C 10.082031 19.234375 10.835938 18.480469 11.765625 18.480469 C 12.691406 18.480469 13.445312 19.234375 13.445312 20.160156 L 13.445312 29.40625 C 13.445312 30.796875 14.585938 31.925781 15.992188 31.925781 C 17.398438 31.925781 18.542969 30.796875 18.542969 29.40625 L 18.542969 20.160156 C 18.542969 19.234375 19.296875 18.480469 20.222656 18.480469 C 21.152344 18.480469 21.902344 19.234375 21.902344 20.160156 L 21.902344 29.40625 C 21.902344 32.648438 19.253906 35.285156 15.992188 35.285156" fill="#5eb4e8"/></g><g id="change4_2"><path d="M 29.992188 28.566406 C 29.355469 28.566406 28.773438 28.207031 28.488281 27.640625 L 25.105469 20.917969 C 24.6875 20.089844 25.023438 19.078125 25.851562 18.660156 C 26.683594 18.242188 27.691406 18.578125 28.109375 19.40625 L 29.992188 23.144531 L 31.875 19.40625 C 32.289062 18.578125 33.296875 18.242188 34.132812 18.660156 C 34.960938 19.078125 35.292969 20.089844 34.875 20.917969 L 31.492188 27.640625 C 31.207031 28.207031 30.625 28.566406 29.992188 28.566406" fill="#5eb4e8"/></g><g id="change4_3"><path d="M 26.605469 35.285156 C 26.351562 35.285156 26.09375 35.230469 25.851562 35.105469 C 25.023438 34.691406 24.6875 33.679688 25.105469 32.851562 L 28.488281 26.128906 C 29.058594 24.996094 30.921875 24.996094 31.492188 26.128906 L 34.875 32.851562 C 35.292969 33.679688 34.960938 34.691406 34.132812 35.105469 C 33.300781 35.527344 32.289062 35.191406 31.875 34.363281 L 29.992188 30.621094 L 28.109375 34.363281 C 27.8125 34.949219 27.222656 35.285156 26.605469 35.285156" fill="#5eb4e8"/></g><g id="change5_1"><path d="M 58.289062 35.285156 C 55.03125 35.285156 52.378906 32.648438 52.378906 29.40625 L 52.378906 20.160156 C 52.378906 19.234375 53.132812 18.480469 54.058594 18.480469 C 54.988281 18.480469 55.738281 19.234375 55.738281 20.160156 L 55.738281 29.40625 C 55.738281 30.796875 56.882812 31.925781 58.289062 31.925781 C 59.695312 31.925781 60.839844 30.796875 60.839844 29.40625 L 60.839844 20.160156 C 60.839844 19.234375 61.589844 18.480469 62.519531 18.480469 C 63.445312 18.480469 64.199219 19.234375 64.199219 20.160156 L 64.199219 29.40625 C 64.199219 32.648438 61.546875 35.285156 58.289062 35.285156" fill="#f9a813"/></g><g id="change5_2"><path d="M 68.902344 35.285156 C 67.976562 35.285156 67.222656 34.535156 67.222656 33.605469 L 67.222656 20.160156 C 67.222656 19.234375 67.976562 18.480469 68.902344 18.480469 C 69.832031 18.480469 70.582031 19.234375 70.582031 20.160156 L 70.582031 33.605469 C 70.582031 34.535156 69.832031 35.285156 68.902344 35.285156" fill="#f9a813"/></g><g id="change6_1"><path d="M 48.601562 15.121094 L 40.140625 38.648438 L 48.601562 15.121094" fill="#f8a1ad"/></g><g id="change7_1"><path d="M 40.140625 40.328125 C 39.953125 40.328125 39.761719 40.296875 39.574219 40.230469 C 38.699219 39.914062 38.246094 38.953125 38.5625 38.078125 L 47.019531 14.550781 C 47.332031 13.679688 48.296875 13.222656 49.167969 13.539062 C 50.042969 13.851562 50.496094 14.816406 50.183594 15.6875 L 41.722656 39.214844 C 41.476562 39.902344 40.832031 40.328125 40.140625 40.328125" fill="#ee275c"/></g><g id="change7_2"><path d="M 68.902344 10.078125 L 11.765625 10.078125 C 10.835938 10.078125 10.082031 9.324219 10.082031 8.398438 C 10.082031 7.46875 10.835938 6.71875 11.765625 6.71875 L 68.902344 6.71875 C 69.832031 6.71875 70.582031 7.46875 70.582031 8.398438 C 70.582031 9.324219 69.832031 10.078125 68.902344 10.078125" fill="#ee275c"/></g><g id="change7_3"><path d="M 68.902344 47.050781 L 11.765625 47.050781 C 10.835938 47.050781 10.082031 46.296875 10.082031 45.371094 C 10.082031 44.441406 10.835938 43.691406 11.765625 43.691406 L 68.902344 43.691406 C 69.832031 43.691406 70.582031 44.441406 70.582031 45.371094 C 70.582031 46.296875 69.832031 47.050781 68.902344 47.050781" fill="#ee275c"/></g></g></svg>