<?xml version="1.0" encoding="UTF-8"?><svg xmlns="http://www.w3.org/2000/svg" xmlns:xlink="http://www.w3.org/1999/xlink" fill="#000000" height="409.6" preserveAspectRatio="xMidYMid meet" version="1" viewBox="0.0 0.0 293.0 409.6" width="293" zoomAndPan="magnify"><g id="change1_1"><path d="M0.5,0.5v381.654h292.02V0.5H0.5z M239.06,235.734H53.96v-185.1h185.1V235.734z" fill="#ffebe3"/></g><g><linearGradient gradientUnits="userSpaceOnUse" id="a" x1="0.5" x2="292.52" xlink:actuate="onLoad" xlink:show="other" xlink:type="simple" xmlns:xlink="http://www.w3.org/1999/xlink" y1="204.787" y2="204.787"><stop offset="0" stop-color="#ffe68a"/><stop offset="1" stop-color="#f99aaf"/></linearGradient><path d="M292.52,409.074H0.5v-26.921h292.02V409.074z M119.131,295.927c0-0.87,0.204-1.69,0.559-2.424 H56.383c-1.339,0-2.424,1.085-2.424,2.424s1.085,2.424,2.424,2.424h63.307C119.336,297.617,119.131,296.797,119.131,295.927z M292.52,0.5v26.921H0.5V0.5H292.52z M249.402,6.552h-14.817v14.817h14.817V6.552z M268.248,6.552h-14.817v14.817h14.817V6.552z M287.094,6.552h-14.817v14.817h14.817V6.552z" fill="url(#a)"/></g><g id="change2_1"><path d="M292.52,0H0.5C0.224,0,0,0.224,0,0.5v26.92v354.733v26.921c0,0.276,0.224,0.5,0.5,0.5h292.02 c0.276,0,0.5-0.224,0.5-0.5v-26.921V27.42V0.5C293.02,0.224,292.796,0,292.52,0z M292.02,408.574H1v-25.921h291.02V408.574z M292.02,381.653H1V27.92h291.02V381.653z M292.02,26.92H1V1h291.02V26.92z M234.585,21.869h14.817c0.276,0,0.5-0.224,0.5-0.5 V6.552c0-0.276-0.224-0.5-0.5-0.5h-14.817c-0.276,0-0.5,0.224-0.5,0.5v14.817C234.085,21.646,234.309,21.869,234.585,21.869z M235.085,7.052h13.817v13.817h-13.817V7.052z M253.431,21.869h14.817c0.276,0,0.5-0.224,0.5-0.5V6.552c0-0.276-0.224-0.5-0.5-0.5 h-14.817c-0.276,0-0.5,0.224-0.5,0.5v14.817C252.931,21.646,253.154,21.869,253.431,21.869z M253.931,7.052h13.817v13.817h-13.817 V7.052z M272.276,21.869h14.817c0.276,0,0.5-0.224,0.5-0.5V6.552c0-0.276-0.224-0.5-0.5-0.5h-14.817c-0.276,0-0.5,0.224-0.5,0.5 v14.817C271.776,21.646,272,21.869,272.276,21.869z M272.776,7.052h13.817v13.817h-13.817V7.052z M265.498,8.896h-9.149 c-0.276,0-0.5,0.224-0.5,0.5v9.149c0,0.276,0.224,0.5,0.5,0.5h9.149c0.276,0,0.5-0.224,0.5-0.5V9.396 C265.998,9.12,265.774,8.896,265.498,8.896z M264.998,18.045h-8.149v-6.511h8.149V18.045z M247.068,18.545 c0,0.276-0.224,0.5-0.5,0.5h-9.149c-0.276,0-0.5-0.224-0.5-0.5s0.224-0.5,0.5-0.5h9.149 C246.845,18.045,247.068,18.269,247.068,18.545z M283.773,10.579l-3.381,3.381l3.381,3.381c0.195,0.195,0.195,0.512,0,0.707 c-0.098,0.098-0.226,0.146-0.354,0.146s-0.256-0.049-0.354-0.146l-3.381-3.381l-3.381,3.381c-0.098,0.098-0.226,0.146-0.354,0.146 s-0.256-0.049-0.354-0.146c-0.195-0.195-0.195-0.512,0-0.707l3.381-3.381l-3.381-3.381c-0.195-0.195-0.195-0.512,0-0.707 s0.512-0.195,0.707,0l3.381,3.381l3.381-3.381c0.195-0.195,0.512-0.195,0.707,0S283.969,10.384,283.773,10.579z M10.938,12.11 c-0.123-0.111-0.185-0.257-0.185-0.437s0.062-0.325,0.185-0.437s0.329-0.167,0.618-0.167l1.389,0.006l3.07,4.816v-3.615h-0.434 c-0.289,0-0.495-0.056-0.618-0.167s-0.185-0.257-0.185-0.437s0.062-0.325,0.185-0.437s0.329-0.167,0.618-0.167l1.576,0.006 c0.289,0,0.495,0.055,0.618,0.164s0.185,0.254,0.185,0.434c0,0.176-0.061,0.32-0.182,0.434s-0.307,0.17-0.557,0.17v5.9h-1.189 l-3.088-4.834v3.633h0.434c0.289,0,0.495,0.056,0.618,0.167s0.185,0.257,0.185,0.437c0,0.176-0.062,0.319-0.185,0.431 s-0.329,0.167-0.618,0.167h-1.576c-0.289,0-0.495-0.056-0.618-0.167s-0.185-0.257-0.185-0.437c0-0.172,0.061-0.314,0.182-0.428 s0.309-0.17,0.562-0.17v-4.699h-0.188C11.267,12.277,11.061,12.222,10.938,12.11z M20.087,17.993c0.5,0.252,1.023,0.378,1.57,0.378 c0.551,0,1.079-0.128,1.585-0.384s0.887-0.6,1.143-1.031s0.384-0.878,0.384-1.339c0-0.484-0.129-0.956-0.387-1.415 s-0.64-0.824-1.146-1.096s-1.032-0.407-1.579-0.407c-0.543,0-1.063,0.133-1.562,0.398s-0.88,0.63-1.146,1.093 s-0.398,0.935-0.398,1.415c0,0.473,0.131,0.926,0.393,1.359S19.587,17.741,20.087,17.993z M20.298,14.422 c0.363-0.348,0.816-0.521,1.359-0.521c0.617,0,1.115,0.219,1.494,0.656c0.277,0.324,0.416,0.68,0.416,1.066 c0,0.379-0.184,0.731-0.551,1.058s-0.82,0.489-1.359,0.489c-0.535,0-0.986-0.163-1.354-0.489s-0.551-0.677-0.551-1.052 C19.753,15.172,19.935,14.77,20.298,14.422z M25.393,13.874c-0.111-0.111-0.167-0.251-0.167-0.419c0-0.176,0.062-0.319,0.185-0.431 s0.329-0.167,0.618-0.167h1.119c0.289,0,0.495,0.056,0.618,0.167s0.185,0.257,0.185,0.437s-0.07,0.332-0.211,0.457 c-0.105,0.094-0.312,0.141-0.621,0.141l0.457,1.904l0.744-1.951h1.066l0.75,1.951l0.469-1.904c-0.297,0-0.492-0.029-0.586-0.088 c-0.188-0.121-0.281-0.293-0.281-0.516c0-0.176,0.062-0.319,0.185-0.431s0.329-0.167,0.618-0.167h1.131 c0.289,0,0.495,0.056,0.618,0.167s0.185,0.257,0.185,0.437c0,0.16-0.054,0.296-0.161,0.407s-0.267,0.175-0.478,0.19l-0.984,4.119 h-1.113l-0.879-2.215l-0.832,2.215h-1.131l-1.008-4.119C25.669,14.047,25.504,13.985,25.393,13.874z M41.169,16.977 c-0.285,0-0.49,0.056-0.615,0.167s-0.188,0.255-0.188,0.431c0,0.18,0.062,0.325,0.185,0.437s0.329,0.167,0.618,0.167h2.602 c0.289,0,0.495-0.056,0.618-0.167s0.185-0.255,0.185-0.431c0-0.18-0.062-0.325-0.185-0.437s-0.329-0.167-0.618-0.167h-1.213V15.74 h1.137c0.484,0,0.874-0.058,1.169-0.173s0.584-0.287,0.867-0.516s0.485-0.46,0.606-0.694c0.16-0.312,0.24-0.645,0.24-0.996 c0-0.637-0.237-1.177-0.712-1.62s-1.118-0.665-1.931-0.665l-2.766-0.006c-0.289,0-0.495,0.056-0.618,0.167 s-0.185,0.257-0.185,0.437s0.062,0.325,0.185,0.437s0.329,0.167,0.618,0.167h0.188v4.699H41.169z M42.558,12.277h1.383 c0.461,0,0.815,0.105,1.063,0.316s0.372,0.457,0.372,0.738c0,0.332-0.153,0.616-0.46,0.853s-0.722,0.354-1.245,0.354h-1.113V12.277 z M47.793,18.011c-0.123-0.111-0.185-0.257-0.185-0.437c0-0.176,0.062-0.319,0.185-0.431s0.329-0.167,0.618-0.167h1.441v-5.197 h-0.967c-0.285,0-0.49-0.056-0.615-0.167s-0.188-0.257-0.188-0.437c0-0.176,0.062-0.319,0.185-0.431s0.329-0.167,0.618-0.167h2.168 v6.398h1.441c0.289,0,0.495,0.056,0.618,0.167s0.185,0.257,0.185,0.437c0,0.176-0.062,0.319-0.185,0.431s-0.329,0.167-0.618,0.167 h-4.084C48.122,18.178,47.916,18.122,47.793,18.011z M55.179,17.864c0.402,0.342,0.926,0.513,1.57,0.513 c0.297,0,0.627-0.04,0.99-0.12s0.695-0.2,0.996-0.36v0.281h1.406c0.289,0,0.495-0.056,0.618-0.167s0.185-0.255,0.185-0.431 c0-0.18-0.062-0.325-0.185-0.437s-0.329-0.167-0.618-0.167h-0.205v-2.473c0-0.559-0.206-0.999-0.618-1.321 s-0.991-0.483-1.737-0.483c-0.25,0-0.529,0.024-0.838,0.073s-0.611,0.114-0.908,0.196c-0.223,0.062-0.369,0.116-0.439,0.161 s-0.125,0.104-0.164,0.179s-0.059,0.162-0.059,0.264c0,0.18,0.056,0.327,0.167,0.442s0.247,0.173,0.407,0.173 c0.117,0,0.281-0.025,0.492-0.076c0.566-0.141,1.027-0.211,1.383-0.211c0.434,0,0.728,0.057,0.882,0.17s0.231,0.26,0.231,0.439 v0.287c-0.477-0.078-0.896-0.117-1.26-0.117c-0.906,0-1.616,0.216-2.13,0.647s-0.771,0.899-0.771,1.403 C54.575,17.145,54.776,17.522,55.179,17.864z M56.146,16.244c0.352-0.238,0.771-0.357,1.26-0.357c0.406,0,0.85,0.047,1.33,0.141 v0.516c-0.285,0.195-0.61,0.35-0.976,0.463s-0.692,0.17-0.981,0.17c-0.34,0-0.607-0.064-0.803-0.193 c-0.105-0.07-0.158-0.162-0.158-0.275C55.817,16.551,55.927,16.396,56.146,16.244z M63.505,19.484l0.68-1.348l-2.08-4.078 c-0.195-0.023-0.344-0.09-0.445-0.199s-0.152-0.242-0.152-0.398c0-0.18,0.062-0.325,0.185-0.437s0.329-0.167,0.618-0.167h1.096 c0.289,0,0.495,0.056,0.618,0.167s0.185,0.257,0.185,0.437c0,0.176-0.062,0.319-0.185,0.431s-0.317,0.167-0.583,0.167l1.418,2.76 l1.406-2.76c-0.258,0-0.448-0.056-0.571-0.167s-0.185-0.257-0.185-0.437c0-0.176,0.062-0.319,0.185-0.431s0.329-0.167,0.618-0.167 h1.131c0.285,0,0.489,0.056,0.612,0.167s0.185,0.257,0.185,0.437c0,0.16-0.053,0.296-0.158,0.407s-0.262,0.175-0.469,0.19 l-2.754,5.426c0.301,0,0.498,0.029,0.592,0.088c0.188,0.121,0.281,0.293,0.281,0.516c0,0.176-0.062,0.319-0.185,0.431 s-0.329,0.167-0.618,0.167H62.31c-0.289,0-0.495-0.056-0.618-0.167s-0.185-0.255-0.185-0.431c0-0.18,0.062-0.325,0.185-0.437 s0.329-0.167,0.618-0.167H63.505z M69.391,18.011c-0.123-0.111-0.185-0.257-0.185-0.437c0-0.176,0.062-0.319,0.185-0.431 s0.329-0.167,0.618-0.167h1.441v-2.918h-0.967c-0.285,0-0.49-0.056-0.615-0.167s-0.188-0.257-0.188-0.437 c0-0.176,0.062-0.319,0.185-0.431s0.329-0.167,0.618-0.167h2.168v4.119h1.441c0.289,0,0.495,0.056,0.618,0.167 s0.185,0.257,0.185,0.437c0,0.176-0.062,0.319-0.185,0.431s-0.329,0.167-0.618,0.167h-4.084 C69.72,18.178,69.514,18.122,69.391,18.011z M72.487,11.85h-1.43v-1.271h1.43V11.85z M76.841,16.977v-2.918 c-0.254,0-0.441-0.057-0.562-0.17s-0.182-0.258-0.182-0.434s0.062-0.319,0.185-0.431s0.329-0.167,0.618-0.167h1.143v0.404 c0.219-0.188,0.46-0.328,0.724-0.422s0.55-0.141,0.858-0.141c0.711,0,1.273,0.221,1.688,0.662c0.328,0.352,0.492,0.812,0.492,1.383 v2.232c0.254,0,0.441,0.056,0.562,0.167s0.182,0.257,0.182,0.437c0,0.176-0.062,0.319-0.185,0.431s-0.329,0.167-0.618,0.167h-1.084 c-0.289,0-0.495-0.056-0.618-0.167s-0.185-0.257-0.185-0.437c0-0.176,0.061-0.319,0.182-0.431s0.309-0.167,0.562-0.167v-2.268 c0-0.262-0.07-0.453-0.211-0.574c-0.184-0.156-0.459-0.234-0.826-0.234c-0.277,0-0.521,0.054-0.729,0.161s-0.474,0.335-0.794,0.683 v2.232c0.309,0,0.508,0.029,0.598,0.088c0.191,0.117,0.287,0.289,0.287,0.516c0,0.176-0.062,0.319-0.185,0.431 s-0.329,0.167-0.618,0.167h-1.365c-0.289,0-0.495-0.056-0.618-0.167s-0.185-0.257-0.185-0.437c0-0.219,0.094-0.389,0.281-0.51 C76.331,17.006,76.532,16.977,76.841,16.977z M86.122,18.359c0.289,0,0.571-0.043,0.847-0.129s0.546-0.215,0.812-0.387v0.586 c0,0.305-0.102,0.557-0.305,0.756s-0.488,0.299-0.855,0.299h-1.324c-0.289,0-0.495,0.056-0.618,0.167s-0.185,0.257-0.185,0.437 c0,0.176,0.062,0.319,0.185,0.431s0.329,0.167,0.618,0.167h1.359c0.461,0,0.875-0.113,1.242-0.34s0.64-0.497,0.817-0.812 s0.267-0.683,0.267-1.104v-4.371h0.205c0.289,0,0.495-0.056,0.618-0.167s0.185-0.255,0.185-0.431c0-0.18-0.062-0.325-0.185-0.437 s-0.329-0.167-0.618-0.167H87.78v0.357c-0.25-0.18-0.513-0.313-0.788-0.401s-0.565-0.132-0.87-0.132 c-0.816,0-1.5,0.272-2.051,0.817s-0.826,1.22-0.826,2.024c0,0.801,0.275,1.474,0.826,2.019S85.306,18.359,86.122,18.359z M84.936,14.369c0.326-0.324,0.718-0.486,1.175-0.486s0.849,0.162,1.175,0.486s0.489,0.707,0.489,1.148 c0,0.445-0.163,0.829-0.489,1.151s-0.718,0.483-1.175,0.483s-0.849-0.161-1.175-0.483s-0.489-0.706-0.489-1.151 C84.446,15.076,84.609,14.693,84.936,14.369z M53.959,236.234h185.1c0.276,0,0.5-0.224,0.5-0.5V50.634c0-0.276-0.224-0.5-0.5-0.5 h-185.1c-0.276,0-0.5,0.224-0.5,0.5v185.101C53.459,236.011,53.683,236.234,53.959,236.234z M54.459,51.134h184.1v184.101h-184.1 V51.134z M146.51,317.531c-13.4,0-24.302,10.902-24.302,24.303s10.902,24.302,24.302,24.302s24.303-10.901,24.303-24.302 S159.91,317.531,146.51,317.531z M146.51,365.136c-12.849,0-23.302-10.453-23.302-23.302c0-12.85,10.453-23.303,23.302-23.303 c12.85,0,23.303,10.453,23.303,23.303C169.812,354.683,159.359,365.136,146.51,365.136z M140.344,331.1h3.885v21.959h-3.885V331.1z M148.79,331.1h3.885v21.959h-3.885V331.1z M200.871,331.1h3.885v21.959h-3.885v-10.434l-14.56,10.421v-21.931l14.56,10.421V331.1z M92.149,341.535l14.56-10.421v21.931l-14.56-10.421v10.434h-3.885V331.1h3.885V341.535z M56.383,298.851h62.998 c1.036,1.883,3.039,3.163,5.336,3.163s4.3-1.28,5.336-3.163h106.583c1.611,0,2.923-1.312,2.923-2.924s-1.312-2.924-2.923-2.924 H130.054c-1.036-1.883-3.039-3.163-5.336-3.163s-4.3,1.28-5.336,3.163H56.383c-1.612,0-2.924,1.312-2.924,2.924 S54.771,298.851,56.383,298.851z M130.49,294.003h106.147c1.061,0,1.923,0.863,1.923,1.924s-0.862,1.924-1.923,1.924H130.49 c0.002-0.004,0.002-0.009,0.003-0.014c0.093-0.28,0.164-0.568,0.215-0.864c0.01-0.054,0.017-0.108,0.025-0.163 c0.042-0.289,0.072-0.583,0.072-0.883s-0.029-0.594-0.072-0.883c-0.008-0.054-0.015-0.109-0.025-0.163 c-0.052-0.296-0.122-0.585-0.215-0.864C130.492,294.012,130.491,294.007,130.49,294.003z M56.383,294.003h62.563 c-0.001,0.003-0.001,0.006-0.002,0.009c-0.094,0.282-0.165,0.572-0.217,0.87c-0.009,0.053-0.016,0.106-0.024,0.16 c-0.042,0.29-0.072,0.583-0.072,0.885c0,0.301,0.029,0.595,0.072,0.885c0.008,0.053,0.015,0.105,0.024,0.158 c0.052,0.3,0.124,0.592,0.219,0.875c0.001,0.002,0.001,0.004,0.001,0.005H56.383c-1.061,0-1.924-0.863-1.924-1.924 S55.322,294.003,56.383,294.003z M57.047,310.576c0.086,0.077,0.128,0.179,0.128,0.304c0,0.122-0.042,0.222-0.128,0.299 s-0.229,0.116-0.43,0.116h-2.52c-0.201,0-0.344-0.039-0.43-0.116S53.54,311,53.54,310.876c0-0.122,0.042-0.223,0.128-0.3 s0.229-0.116,0.43-0.116h0.843v-3.48l-0.745,0.195c-0.119,0.033-0.209,0.049-0.269,0.049c-0.106,0-0.197-0.042-0.275-0.126 c-0.077-0.084-0.115-0.188-0.115-0.31c0-0.111,0.028-0.198,0.085-0.263c0.057-0.063,0.177-0.12,0.358-0.169l1.795-0.464v4.567 h0.843C56.818,310.46,56.961,310.499,57.047,310.576z M60.822,310.493c0.111,0.105,0.167,0.237,0.167,0.395 s-0.056,0.289-0.167,0.395c-0.111,0.106-0.265,0.159-0.46,0.159s-0.349-0.053-0.46-0.159c-0.111-0.105-0.167-0.237-0.167-0.395 s0.056-0.289,0.167-0.395c0.111-0.106,0.265-0.159,0.46-0.159S60.711,310.387,60.822,310.493z M59.895,308.551 c-0.111-0.105-0.167-0.237-0.167-0.395s0.056-0.289,0.167-0.395c0.111-0.106,0.265-0.159,0.46-0.159s0.349,0.053,0.46,0.159 c0.111,0.105,0.167,0.237,0.167,0.395s-0.056,0.289-0.167,0.395c-0.111,0.106-0.265,0.159-0.46,0.159 S60.006,308.657,59.895,308.551z M66.992,310.465c0.075,0.084,0.112,0.228,0.112,0.431v0.399h-3.802v-0.884 c1.503-1.24,2.411-2.038,2.723-2.394c0.158-0.182,0.236-0.354,0.236-0.517c0-0.204-0.089-0.384-0.267-0.54 c-0.178-0.155-0.414-0.233-0.71-0.233c-0.299,0-0.547,0.087-0.745,0.261c-0.104,0.092-0.187,0.229-0.248,0.411 c-0.038,0.113-0.091,0.195-0.157,0.244s-0.148,0.073-0.246,0.073c-0.114,0-0.213-0.041-0.295-0.122 c-0.083-0.082-0.125-0.177-0.125-0.285c0-0.163,0.076-0.366,0.227-0.61c0.15-0.245,0.37-0.44,0.659-0.587s0.604-0.22,0.942-0.22 c0.526,0,0.958,0.159,1.295,0.479c0.336,0.319,0.505,0.705,0.505,1.158c0,0.23-0.049,0.444-0.145,0.642 c-0.097,0.196-0.328,0.469-0.694,0.815c-0.288,0.274-0.849,0.766-1.682,1.474h1.828c0.101-0.081,0.195-0.122,0.285-0.122 C66.816,310.338,66.918,310.38,66.992,310.465z M71.971,310.009c0.086-0.079,0.129-0.18,0.129-0.302s-0.042-0.222-0.126-0.299 c-0.085-0.077-0.215-0.116-0.392-0.116v-3.265h-1.103l-1.999,3.403v0.696h2.268v0.333h-0.326c-0.2,0-0.344,0.039-0.43,0.116 c-0.085,0.077-0.128,0.178-0.128,0.3c0,0.124,0.043,0.226,0.128,0.303c0.086,0.077,0.229,0.116,0.43,0.116h1.12 c0.2,0,0.344-0.039,0.429-0.116c0.086-0.077,0.129-0.177,0.129-0.299s-0.042-0.223-0.126-0.302 c-0.085-0.078-0.215-0.118-0.392-0.118v-0.333C71.756,310.127,71.886,310.087,71.971,310.009z M70.748,309.292h-1.209l1.209-2.052 V309.292z M224.67,309.091c0.121,0.221,0.184,0.469,0.184,0.742c0,0.296-0.082,0.569-0.244,0.82 c-0.16,0.252-0.395,0.441-0.701,0.57s-0.709,0.193-1.205,0.193c-0.646,0-1.131-0.101-1.457-0.301 c-0.182-0.114-0.273-0.25-0.273-0.407c0-0.12,0.041-0.221,0.121-0.304s0.176-0.124,0.291-0.124c0.078,0,0.16,0.027,0.244,0.081 c0.119,0.082,0.232,0.136,0.338,0.163c0.162,0.038,0.387,0.057,0.672,0.057c0.484,0,0.836-0.062,1.053-0.188 c0.219-0.127,0.326-0.305,0.326-0.536c0-0.171-0.062-0.335-0.189-0.494c-0.125-0.159-0.295-0.281-0.506-0.368 c-0.123-0.049-0.328-0.083-0.619-0.103c-0.139-0.008-0.244-0.051-0.32-0.128c-0.074-0.077-0.111-0.173-0.111-0.287 c0-0.119,0.041-0.22,0.123-0.301c0.08-0.082,0.184-0.122,0.309-0.122c0.277,0,0.424-0.002,0.443-0.004 c0.109-0.011,0.217-0.047,0.326-0.106c0.107-0.06,0.195-0.142,0.262-0.246s0.1-0.212,0.1-0.323c0-0.177-0.078-0.329-0.232-0.458 c-0.156-0.129-0.391-0.193-0.703-0.193c-0.402,0-0.709,0.116-0.92,0.35c-0.062,0.068-0.113,0.111-0.15,0.13 c-0.057,0.03-0.121,0.045-0.191,0.045c-0.113,0-0.213-0.04-0.293-0.122c-0.082-0.081-0.123-0.182-0.123-0.301 c0-0.188,0.125-0.369,0.375-0.546c0.363-0.258,0.818-0.387,1.363-0.387c0.516,0,0.93,0.146,1.242,0.439 c0.312,0.294,0.469,0.646,0.469,1.059c0,0.215-0.047,0.415-0.139,0.601c-0.092,0.187-0.23,0.357-0.416,0.515 C224.363,308.675,224.547,308.869,224.67,309.091z M227.471,308.551c-0.111-0.105-0.168-0.237-0.168-0.395s0.057-0.289,0.168-0.395 c0.111-0.106,0.264-0.159,0.459-0.159s0.35,0.053,0.461,0.159c0.111,0.105,0.166,0.237,0.166,0.395s-0.055,0.289-0.166,0.395 c-0.111,0.106-0.266,0.159-0.461,0.159S227.582,308.657,227.471,308.551z M228.398,310.493c0.111,0.105,0.166,0.237,0.166,0.395 s-0.055,0.289-0.166,0.395c-0.111,0.106-0.266,0.159-0.461,0.159s-0.348-0.053-0.459-0.159c-0.111-0.105-0.168-0.237-0.168-0.395 s0.057-0.289,0.168-0.395c0.111-0.106,0.264-0.159,0.459-0.159S228.287,310.387,228.398,310.493z M234.629,310.576 c0.086,0.077,0.129,0.179,0.129,0.304c0,0.122-0.043,0.222-0.129,0.299s-0.229,0.116-0.43,0.116h-2.52 c-0.201,0-0.344-0.039-0.43-0.116s-0.127-0.179-0.127-0.303c0-0.122,0.041-0.223,0.127-0.3s0.229-0.116,0.43-0.116h0.844v-3.48 l-0.746,0.195c-0.119,0.033-0.209,0.049-0.268,0.049c-0.107,0-0.197-0.042-0.275-0.126s-0.115-0.188-0.115-0.31 c0-0.111,0.027-0.198,0.084-0.263c0.057-0.063,0.178-0.12,0.359-0.169l1.795-0.464v4.567h0.842 C234.4,310.46,234.543,310.499,234.629,310.576z M239.203,310.46c0.201,0,0.344,0.039,0.43,0.116s0.127,0.179,0.127,0.304 c0,0.122-0.041,0.222-0.127,0.299s-0.229,0.116-0.43,0.116h-2.52c-0.201,0-0.344-0.039-0.43-0.116s-0.129-0.179-0.129-0.303 c0-0.122,0.043-0.223,0.129-0.3s0.229-0.116,0.43-0.116h0.842v-3.48l-0.744,0.195c-0.119,0.033-0.209,0.049-0.27,0.049 c-0.105,0-0.197-0.042-0.275-0.126c-0.076-0.084-0.115-0.188-0.115-0.31c0-0.111,0.029-0.198,0.086-0.263 c0.057-0.063,0.176-0.12,0.357-0.169l1.795-0.464v4.567H239.203z" fill="#1a1a1a"/></g></svg>